<svg width="72" height="72" viewBox="0 0 72 72" fill="none" xmlns="http://www.w3.org/2000/svg">
<path d="M11.8192 51.2578C8.70411 51.2595 6.17286 48.7248 6.1723 45.6103L6.17117 28.3196C6.17005 25.2078 8.70074 22.6738 11.8119 22.6732C13.3245 22.6721 14.7409 23.2588 15.8085 24.3253C16.8761 25.3918 17.4634 26.8104 17.4645 28.3185L17.4628 45.6097C17.4667 46.351 17.3229 47.0856 17.0399 47.7708C16.7568 48.4559 16.3401 49.0778 15.8141 49.6001C15.2913 50.1273 14.6689 50.5453 13.9831 50.8299C13.2973 51.1145 12.5617 51.2599 11.8192 51.2578ZM11.8147 24.1903C9.53492 24.1892 7.68711 26.0415 7.68655 28.3196L7.68936 45.6086C7.68921 46.7042 8.12409 47.755 8.8984 48.53C9.67272 49.3051 10.7231 49.741 11.8187 49.7418C12.3612 49.7419 12.8984 49.635 13.3996 49.4273C13.9008 49.2196 14.3561 48.9151 14.7395 48.5313C15.1229 48.1475 15.4269 47.6918 15.6341 47.1904C15.8412 46.689 15.9475 46.1517 15.9469 45.6092V28.3173C15.9457 27.2223 15.5098 26.1725 14.735 25.3986C13.9602 24.6247 12.9098 24.1901 11.8147 24.1903Z" fill="white"/>
<path d="M56.1049 25.0464L54.5873 25.0458L17.3953 25.0509L15.8771 25.0515L15.876 23.5333C15.8726 17.3008 19.2679 11.5042 24.8293 8.07972L22.6671 4.13266C22.4027 3.67028 22.3363 3.08472 22.4904 2.54922C22.5686 2.28214 22.699 2.03326 22.8742 1.81705C23.0493 1.60083 23.2658 1.4216 23.5108 1.28978C23.8138 1.12296 24.1544 1.03641 24.5003 1.03835C25.2664 1.03835 25.9678 1.45403 26.3379 2.12566L28.6009 6.24822C30.9611 5.38442 33.4557 4.94546 35.9691 4.95166C38.5599 4.95053 41.0445 5.38872 43.3963 6.2516L45.6559 2.12228C45.8358 1.79284 46.1013 1.51802 46.4243 1.32677C46.7473 1.13552 47.1159 1.0349 47.4913 1.03553C47.8368 1.03444 48.1772 1.1191 48.4819 1.28191C48.7274 1.41368 48.9439 1.59332 49.1188 1.81022C49.2937 2.02712 49.4233 2.27687 49.5 2.54472C49.5773 2.80885 49.6013 3.0857 49.5706 3.35919C49.5399 3.63267 49.4551 3.89731 49.3211 4.13772L47.16 8.08253C52.7124 11.5143 56.1038 17.3064 56.1032 23.5282L56.1049 25.0464ZM45.1103 8.66416L47.9919 3.40197C48.0331 3.33586 48.0603 3.26207 48.072 3.18508C48.0837 3.1081 48.0796 3.02954 48.0599 2.9542C48.0402 2.87887 48.0054 2.80833 47.9576 2.74689C47.9097 2.68546 47.8499 2.63442 47.7816 2.59688C47.7134 2.55935 47.6383 2.53611 47.5608 2.52858C47.4833 2.52105 47.405 2.52939 47.3309 2.55309C47.2567 2.57679 47.1881 2.61535 47.1293 2.66643C47.0706 2.7175 47.0228 2.78002 46.989 2.85016L44.0775 8.16578C41.6284 7.07791 38.8862 6.46647 35.9876 6.46928C33.0953 6.46647 30.3581 7.07566 27.9163 8.1596L25.002 2.85578C24.9664 2.7895 24.9181 2.73094 24.8597 2.68353C24.8013 2.63611 24.734 2.60078 24.6618 2.57958C24.5897 2.55838 24.514 2.55174 24.4392 2.56005C24.3645 2.56836 24.2921 2.59145 24.2263 2.62797C23.9468 2.7776 23.8438 3.12916 23.9996 3.40366L26.8824 8.66191C21.2181 11.5835 17.3908 17.1467 17.3942 23.5338L54.5856 23.5293C54.5873 17.1444 50.7668 11.5925 45.1103 8.66416ZM27.5288 16.7962C27.1151 16.796 26.7186 16.6315 26.4262 16.3388C26.1339 16.0462 25.9698 15.6495 25.9701 15.2358C25.9703 14.8222 26.1348 14.4256 26.4274 14.1333C26.7201 13.841 27.1168 13.6769 27.5304 13.6772C27.9441 13.6779 28.3406 13.8425 28.6332 14.135C28.9257 14.4274 29.0905 14.8239 29.0914 15.2375C29.0908 15.6514 28.9258 16.0481 28.6328 16.3404C28.3398 16.6327 27.9426 16.7967 27.5288 16.7962ZM44.4639 16.7928C44.2591 16.7932 44.0562 16.7532 43.8669 16.675C43.6776 16.5968 43.5056 16.482 43.3608 16.3372C43.2159 16.1924 43.1011 16.0204 43.0228 15.8311C42.9445 15.6418 42.9044 15.439 42.9047 15.2342C42.9062 14.8207 43.0709 14.4245 43.363 14.1318C43.6551 13.8392 44.051 13.6738 44.4645 13.6715C44.8774 13.6749 45.2724 13.8409 45.5637 14.1335C45.855 14.4262 46.0193 14.8218 46.0209 15.2347C46.021 15.4393 45.9808 15.6418 45.9026 15.8308C45.8244 16.0198 45.7097 16.1916 45.5651 16.3362C45.4206 16.4809 45.2489 16.5957 45.06 16.6741C44.871 16.7524 44.6685 16.7928 44.4639 16.7928ZM29.0874 70.9644C25.9751 70.9638 23.4422 68.4326 23.4416 65.318L23.4405 57.6866L21.9566 57.6883C21.1783 57.691 20.4072 57.5391 19.6881 57.2415C18.9689 56.9439 18.316 56.5065 17.7671 55.9547C17.2145 55.4059 16.7766 54.7527 16.4788 54.033C16.1811 53.3134 16.0295 52.5417 16.0329 51.7629L16.0273 24.9727V23.4534H17.5455L54.4584 23.4478L55.9772 23.4467V24.9648L55.9811 51.7584C55.9817 55.026 53.3233 57.6849 50.0569 57.6843L48.564 57.6855L48.5657 65.3141C48.5657 68.427 46.0333 70.961 42.9221 70.961C42.1803 70.9645 41.4452 70.8202 40.7597 70.5366C40.0742 70.2529 39.452 69.8356 38.9295 69.309C38.4025 68.7867 37.9845 68.1649 37.6999 67.4797C37.4153 66.7944 37.2698 66.0594 37.2718 65.3175V57.6855H34.7344V65.3158C34.7333 68.4292 32.2014 70.965 29.0874 70.9644Z" fill="white"/>
<path d="M17.5528 51.7624C17.5515 52.3414 17.6646 52.9149 17.8855 53.4501C18.1064 53.9853 18.4307 54.4716 18.84 54.8812C19.2492 55.2907 19.7353 55.6155 20.2703 55.8368C20.8053 56.0581 21.3788 56.1716 21.9577 56.1707H24.9576L24.9609 65.3192C24.9604 67.5974 26.811 69.4486 29.0869 69.4491C29.6293 69.4488 30.1664 69.3417 30.6674 69.1338C31.1684 68.9259 31.6236 68.6213 32.0069 68.2375C32.3902 67.8537 32.6941 67.3981 32.9013 66.8968C33.1085 66.3955 33.2149 65.8583 33.2145 65.3159L33.2151 56.1702L38.7889 56.1685L38.7883 65.3164C38.7906 67.5951 40.6434 69.4486 42.9187 69.4441C45.2002 69.4457 47.0497 67.5923 47.0492 65.3131L47.0464 56.1674L50.0574 56.1668C52.4869 56.1674 54.4629 54.1936 54.4629 51.7585L54.4579 24.9638L17.5461 24.9706L17.5528 51.7624ZM60.1852 51.2506C57.0712 51.2511 54.5383 48.7204 54.5389 45.6053L54.5344 28.3152C54.5355 25.2006 57.0645 22.6671 60.1768 22.6671C63.2931 22.6666 65.8277 25.1995 65.8271 28.3135L65.8288 45.6025C65.8294 48.7154 63.2987 51.2511 60.1852 51.2506ZM60.1796 24.1853C57.8998 24.1831 56.0526 26.0342 56.0526 28.3152L56.0542 45.6047C56.0539 46.1471 56.1606 46.6842 56.368 47.1854C56.5755 47.6865 56.8797 48.1418 57.2633 48.5253C57.6468 48.9087 58.1022 49.2128 58.6034 49.4201C59.1046 49.6274 59.6417 49.7339 60.1841 49.7335C60.7264 49.7335 61.2634 49.6266 61.7643 49.419C62.2653 49.2114 62.7205 48.9071 63.1038 48.5235C63.4871 48.14 63.7911 47.6846 63.9983 47.1835C64.2056 46.6824 64.3121 46.1453 64.3117 45.6031L64.3072 28.3141C64.3076 27.7718 64.2011 27.2349 63.9938 26.7339C63.7865 26.2329 63.4825 25.7776 63.0992 25.3942C62.7158 25.0107 62.2607 24.7066 61.7597 24.4992C61.2587 24.2917 60.7218 24.1851 60.1796 24.1853Z" fill="white"/>
<path d="M11.8147 24.1903C9.53493 24.1892 7.68712 26.0415 7.68655 28.3196L7.68937 45.6086C7.689 46.1511 7.79556 46.6883 8.00297 47.1896C8.21038 47.6908 8.51456 48.1463 8.89812 48.5299C9.28168 48.9135 9.7371 49.2177 10.2383 49.4252C10.7396 49.6327 11.2768 49.7393 11.8192 49.739C12.3616 49.7396 12.8988 49.6332 13.4 49.4258C13.9012 49.2185 14.3566 48.9142 14.74 48.5306C15.1235 48.147 15.4274 47.6914 15.6345 47.1901C15.8416 46.6888 15.9478 46.1516 15.9469 45.6092V28.3173C15.9457 27.2223 15.5098 26.1725 14.735 25.3986C13.9602 24.6247 12.9098 24.1901 11.8147 24.1903ZM45.1102 8.66416L47.9919 3.40197C48.0653 3.26848 48.0828 3.11133 48.0405 2.96497C47.9983 2.81861 47.8997 2.69499 47.7664 2.62122C47.6328 2.54899 47.4761 2.53253 47.3305 2.57542C47.1848 2.61831 47.0621 2.71708 46.989 2.85016L44.0781 8.16747C41.6289 7.07735 38.8879 6.46647 35.9876 6.46928C33.0952 6.46647 30.3553 7.07566 27.9163 8.1596L25.002 2.85578C24.9664 2.78958 24.9181 2.73109 24.8597 2.68371C24.8014 2.63633 24.7342 2.60099 24.6621 2.57975C24.59 2.55851 24.5144 2.55179 24.4397 2.55997C24.365 2.56815 24.2927 2.59107 24.2269 2.62741C24.1604 2.66291 24.1018 2.7113 24.0543 2.76975C24.0068 2.8282 23.9714 2.89554 23.9503 2.96782C23.9291 3.0401 23.9226 3.11587 23.931 3.19071C23.9395 3.26555 23.9628 3.33794 23.9996 3.40366L26.8824 8.66247C21.2181 11.5835 17.3908 17.1467 17.3942 23.5338L54.5856 23.5293C54.5872 17.1444 50.7667 11.5925 45.1102 8.66416ZM27.5287 16.7962C27.1151 16.796 26.7185 16.6315 26.4262 16.3388C26.1339 16.0462 25.9698 15.6495 25.9701 15.2358C25.9703 14.8222 26.1348 14.4256 26.4274 14.1333C26.7201 13.841 27.1168 13.6769 27.5304 13.6772C27.9441 13.6779 28.3406 13.8425 28.6332 14.135C28.9257 14.4274 29.0905 14.8239 29.0914 15.2375C29.0908 15.6514 28.9258 16.0481 28.6328 16.3404C28.3398 16.6327 27.9426 16.7967 27.5287 16.7962ZM44.4639 16.7928C44.2592 16.793 44.0564 16.7528 43.8672 16.6745C43.678 16.5962 43.5061 16.4814 43.3612 16.3367C43.2164 16.1919 43.1016 16.02 43.0232 15.8309C42.9449 15.6417 42.9046 15.4389 42.9047 15.2342C42.9069 14.8209 43.0718 14.4251 43.3638 14.1326C43.6558 13.8402 44.0512 13.6745 44.4645 13.6715C44.8774 13.6749 45.2723 13.8409 45.5637 14.1335C45.855 14.4262 46.0193 14.8218 46.0209 15.2347C46.0212 15.4393 45.981 15.6419 45.9029 15.831C45.8247 16.0201 45.7101 16.1919 45.5655 16.3366C45.4208 16.4813 45.2491 16.5961 45.0601 16.6744C44.8711 16.7527 44.6685 16.7929 44.4639 16.7928ZM17.5461 24.9705L17.5522 51.7652C17.5516 52.3439 17.6651 52.917 17.8862 53.4518C18.1074 53.9865 18.4319 54.4724 18.8411 54.8816C19.2504 55.2908 19.7363 55.6152 20.2711 55.8363C20.8059 56.0574 21.379 56.1708 21.9577 56.1701L24.9576 56.1712L24.9609 65.3197C24.9604 67.5978 26.8121 69.4496 29.0869 69.4496C31.3684 69.4496 33.2167 67.5962 33.2173 65.3169L33.2151 56.1707L38.7889 56.169L38.7911 65.3169C38.7911 67.5933 40.6434 69.449 42.9187 69.4445C45.2002 69.4462 47.0497 67.5928 47.0492 65.3135L47.0464 56.1678L50.0569 56.1656C50.6356 56.1657 51.2087 56.0518 51.7435 55.8303C52.2782 55.6089 52.7641 55.2844 53.1734 54.8752C53.5827 54.466 53.9074 53.9802 54.1289 53.4455C54.3505 52.9108 54.4645 52.3377 54.4646 51.759L54.4596 24.9643L17.5461 24.9705ZM64.3089 28.3134C64.309 27.7712 64.2022 27.2342 63.9947 26.7333C63.7872 26.2323 63.483 25.7771 63.0996 25.3938C62.7161 25.0104 62.2609 24.7064 61.7598 24.499C61.2588 24.2916 60.7219 24.185 60.1796 24.1852C57.8998 24.183 56.0526 26.0342 56.0526 28.3151L56.0559 45.6052C56.0556 46.1474 56.1621 46.6844 56.3694 47.1854C56.5767 47.6865 56.8808 48.1417 57.2642 48.5251C57.6476 48.9085 58.1029 49.2126 58.6039 49.4199C59.1049 49.6273 59.6419 49.7338 60.1841 49.7334C60.7264 49.7335 61.2634 49.6267 61.7644 49.4191C62.2654 49.2115 62.7206 48.9072 63.104 48.5236C63.4873 48.14 63.7913 47.6846 63.9985 47.1835C64.2057 46.6824 64.3122 46.1453 64.3117 45.603L64.3089 28.3134Z" fill="#A4C439"/>
</svg>
