<svg width="72" height="72" viewBox="0 0 72 72" fill="none" xmlns="http://www.w3.org/2000/svg">
<path d="M20.8833 30.3233C20.8833 31.1916 20.9771 31.8956 21.1414 32.4118C21.3291 32.9281 21.5638 33.4913 21.8923 34.1014C22.0096 34.2891 22.0566 34.4768 22.0566 34.6411C22.0566 34.8758 21.9158 35.1104 21.6107 35.3451L20.1324 36.3307C19.9212 36.4715 19.71 36.5419 19.5222 36.5419C19.2876 36.5419 19.0529 36.4245 18.8183 36.2133C18.4897 35.8613 18.2081 35.4859 17.9735 35.1104C17.7388 34.7115 17.5042 34.2656 17.246 33.7259C15.4157 35.8848 13.116 36.9642 10.347 36.9642C8.37585 36.9642 6.80362 36.4011 5.65379 35.2747C4.50395 34.1483 3.9173 32.6465 3.9173 30.7692C3.9173 28.7746 4.62128 27.1554 6.05271 25.9352C7.48414 24.715 9.38489 24.1048 11.8019 24.1048C12.5997 24.1048 13.4211 24.1752 14.2893 24.2926C15.1575 24.4099 16.0493 24.5976 16.9879 24.8088V23.0958C16.9879 21.3124 16.6124 20.0687 15.885 19.3412C15.1341 18.6138 13.8669 18.2618 12.06 18.2618C11.2387 18.2618 10.3939 18.3556 9.52569 18.5668C8.65744 18.778 7.81267 19.0362 6.99135 19.3647C6.6159 19.529 6.3343 19.6228 6.17004 19.6697C6.00578 19.7167 5.88845 19.7401 5.79458 19.7401C5.46606 19.7401 5.3018 19.5055 5.3018 19.0127V17.8629C5.3018 17.4874 5.34873 17.2058 5.46606 17.0415C5.58339 16.8773 5.79458 16.713 6.12311 16.5488C6.94442 16.1264 7.93 15.7744 9.07983 15.4928C10.2297 15.1877 11.4499 15.0469 12.7405 15.0469C15.533 15.0469 17.5746 15.6805 18.8887 16.9477C20.1793 18.2149 20.8363 20.1391 20.8363 22.7203V30.3233H20.8833ZM11.356 33.8902C12.1304 33.8902 12.9283 33.7494 13.773 33.4678C14.6178 33.1862 15.3687 32.67 16.0023 31.966C16.3778 31.5201 16.6594 31.0273 16.8002 30.4641C16.941 29.901 17.0348 29.2204 17.0348 28.4226V27.437C16.3543 27.2728 15.6269 27.132 14.876 27.0381C14.125 26.9442 13.3976 26.8973 12.6701 26.8973C11.0979 26.8973 9.94808 27.2024 9.1737 27.8359C8.39932 28.4695 8.02386 29.3612 8.02386 30.5345C8.02386 31.6374 8.30545 32.4588 8.8921 33.0219C9.45529 33.6086 10.2766 33.8902 11.356 33.8902ZM30.1993 36.4245C29.7769 36.4245 29.4953 36.3541 29.3076 36.1899C29.1199 36.0491 28.9556 35.7205 28.8148 35.2747L23.3003 17.1354C23.1595 16.6661 23.0891 16.361 23.0891 16.1968C23.0891 15.8213 23.2768 15.6101 23.6523 15.6101H25.9519C26.3978 15.6101 26.7029 15.6805 26.8671 15.8448C27.0548 15.9856 27.1956 16.3141 27.3364 16.76L31.2787 32.2945L34.9394 16.76C35.0568 16.2906 35.1976 15.9856 35.3853 15.8448C35.573 15.704 35.9016 15.6101 36.3239 15.6101H38.2012C38.6471 15.6101 38.9521 15.6805 39.1399 15.8448C39.3276 15.9856 39.4919 16.3141 39.5857 16.76L43.2934 32.4822L47.353 16.76C47.4938 16.2906 47.6581 15.9856 47.8223 15.8448C48.01 15.704 48.3151 15.6101 48.7375 15.6101H50.9198C51.2953 15.6101 51.5065 15.7978 51.5065 16.1968C51.5065 16.3141 51.483 16.4314 51.4596 16.5722C51.4361 16.713 51.3892 16.9008 51.2953 17.1589L45.64 35.2982C45.4992 35.7675 45.3349 36.0725 45.1472 36.2133C44.9595 36.3541 44.6544 36.448 44.2555 36.448H42.2374C41.7915 36.448 41.4865 36.3776 41.2988 36.2133C41.111 36.0491 40.9468 35.744 40.8529 35.2747L37.2157 20.1391L33.6019 35.2512C33.4846 35.7205 33.3438 36.0256 33.156 36.1899C32.9683 36.3541 32.6398 36.4245 32.2174 36.4245H30.1993ZM60.3532 37.0581C59.133 37.0581 57.9127 36.9173 56.7394 36.6357C55.5661 36.3541 54.6509 36.0491 54.0408 35.6971C53.6654 35.4859 53.4072 35.2512 53.3134 35.04C53.2195 34.8288 53.1726 34.5942 53.1726 34.383V33.1862C53.1726 32.6934 53.3603 32.4588 53.7123 32.4588C53.8531 32.4588 53.9939 32.4822 54.1347 32.5292C54.2755 32.5761 54.4867 32.67 54.7213 32.7638C55.5192 33.1158 56.3874 33.3974 57.3026 33.5851C58.2413 33.7729 59.1564 33.8667 60.0951 33.8667C61.5734 33.8667 62.7233 33.6086 63.5211 33.0923C64.319 32.5761 64.7414 31.8252 64.7414 30.8631C64.7414 30.206 64.5302 29.6663 64.1078 29.2204C63.6854 28.7746 62.8875 28.3757 61.7377 28.0002L58.3351 26.9442C56.6221 26.4045 55.3549 25.6067 54.5806 24.5507C53.8062 23.5182 53.4072 22.3683 53.4072 21.1481C53.4072 20.1625 53.6184 19.2943 54.0408 18.5434C54.4632 17.7925 55.0264 17.1354 55.7304 16.6192C56.4344 16.0794 57.2322 15.6805 58.1709 15.3989C59.1095 15.1173 60.0951 15 61.1276 15C61.6438 15 62.1836 15.0235 62.6998 15.0939C63.2395 15.1643 63.7323 15.2581 64.2251 15.352C64.6944 15.4693 65.1403 15.5867 65.5627 15.7274C65.9851 15.8682 66.3136 16.009 66.5482 16.1498C66.8768 16.3376 67.1114 16.5253 67.2522 16.7365C67.393 16.9242 67.4634 17.1823 67.4634 17.5109V18.6138C67.4634 19.1066 67.2757 19.3647 66.9237 19.3647C66.736 19.3647 66.4309 19.2708 66.032 19.0831C64.6944 18.473 63.1926 18.1679 61.5265 18.1679C60.1889 18.1679 59.133 18.3791 58.4055 18.825C57.6781 19.2708 57.3026 19.9513 57.3026 20.9135C57.3026 21.5705 57.5373 22.1337 58.0066 22.5795C58.4759 23.0254 59.3442 23.4713 60.5879 23.8702L63.92 24.9262C65.6096 25.4659 66.8298 26.2168 67.5573 27.1789C68.2847 28.141 68.6367 29.2439 68.6367 30.4641C68.6367 31.4732 68.4255 32.3884 68.0266 33.1862C67.6042 33.9841 67.041 34.688 66.3136 35.2512C65.5861 35.8379 64.7179 36.2603 63.7089 36.5653C62.6529 36.8938 61.55 37.0581 60.3532 37.0581Z" fill="white"/>
<path fill-rule="evenodd" clip-rule="evenodd" d="M64.7883 48.4626C57.068 54.1649 45.8512 57.192 36.2066 57.192C22.6902 57.192 10.5113 52.1938 1.31257 43.8868C0.585124 43.2297 1.24217 42.338 2.11042 42.8543C12.06 48.6269 24.3328 52.1234 37.0279 52.1234C45.5931 52.1234 55.003 50.3399 63.6619 46.6792C64.9526 46.0926 66.0555 47.524 64.7883 48.4626Z" fill="#FF9900"/>
<path fill-rule="evenodd" clip-rule="evenodd" d="M68.0032 44.802C67.0176 43.5348 61.4796 44.1919 58.9687 44.4969C58.2178 44.5908 58.1005 43.9337 58.781 43.4409C63.1926 40.3434 70.4436 41.2351 71.2884 42.2676C72.1332 43.3236 71.0537 50.5746 66.9237 54.0476C66.2901 54.5873 65.68 54.3057 65.9616 53.6018C66.9003 51.2786 68.9887 46.0457 68.0032 44.802Z" fill="#FF9900"/>
</svg>
