<svg width="72" height="72" viewBox="0 0 72 72" fill="none" xmlns="http://www.w3.org/2000/svg">
<path d="M64.9125 17.2688L37.7437 1.6313C37.2937 1.35005 36.675 1.23755 36 1.23755C35.325 1.23755 34.7063 1.4063 34.2563 1.6313L7.25625 17.325C6.3 17.8875 5.625 19.2938 5.625 20.3625V51.6938C5.625 52.3125 5.7375 53.0438 6.1875 53.6626L66.2625 18.7875C65.925 18.1125 65.4188 17.6063 64.9125 17.2688Z" fill="#D26383"/>
<path d="M6.01874 53.6062C6.29999 54.0562 6.69374 54.45 7.08749 54.6749L34.2 70.3687C34.65 70.65 35.2687 70.7625 35.9437 70.7625C36.6187 70.7625 37.2375 70.5937 37.6875 70.3687L64.6875 54.6749C65.6437 54.1124 66.3187 52.7062 66.3187 51.6375V20.3062C66.3187 19.8 66.2625 19.2375 65.9812 18.7312L6.01874 53.6062Z" fill="#9C033A"/>
<path d="M47.9813 42.8062C45.6188 46.9688 41.1187 49.7812 36 49.7812C28.4062 49.7812 22.2188 43.5938 22.2188 36C22.2188 28.4062 28.4062 22.2188 36 22.2188C41.1187 22.2188 45.6188 25.0312 47.9813 29.25L55.2938 25.0312C51.4688 18.3375 44.2687 13.7812 36 13.7812C23.7375 13.7812 13.7812 23.7375 13.7812 36C13.7812 48.2625 23.7375 58.2188 36 58.2188C44.2125 58.2188 51.4125 53.7188 55.2375 47.0812L47.9813 42.8062Z" fill="white"/>
<path d="M46.1812 34.7625H49.1062V31.7812H51.5812V34.7625H54.5625V37.2375H51.5812V40.1625H49.1062V37.2375H46.1812V34.7625ZM56.5875 34.7625H59.5125V31.7812H61.9875V34.7625H64.9687V37.2375H61.9875V40.1625H59.5125V37.2375H56.5875V34.7625Z" fill="white"/>
</svg>
