<svg width="72" height="72" viewBox="0 0 72 72" fill="none" xmlns="http://www.w3.org/2000/svg">
<g clip-path="url(#clip0_1118_114)">
<path d="M35.9481 3.52088C42.3484 3.51831 48.6056 5.41385 53.9284 8.96775C59.2512 12.5216 63.4005 17.5743 65.8516 23.4865C68.3026 29.3988 68.9452 35.9052 67.6982 42.1827C66.4511 48.4603 63.3704 54.227 58.8457 58.7535C54.321 63.2801 48.5555 66.3631 42.2785 67.6126C36.0014 68.8622 29.4948 68.2222 23.5815 65.7735C17.6683 63.3248 12.614 59.1775 9.05796 53.8561C5.50193 48.5348 3.60389 42.2783 3.60389 35.8781C3.6015 31.6282 4.43682 27.4195 6.06208 23.4927C7.68733 19.5659 10.0707 15.9979 13.0758 12.9928C16.0809 9.98765 19.6489 7.60432 23.5757 5.97907C27.5025 4.35381 31.7112 3.51849 35.9611 3.52088H35.9481Z" fill="#4A4A4D"/>
<path d="M35.9481 68.8239C29.4321 68.8239 23.0624 66.8917 17.6445 63.2716C12.2266 59.6514 8.00381 54.506 5.51023 48.486C3.01664 42.4659 2.3642 35.8416 3.63542 29.4508C4.90664 23.0599 8.04442 17.1895 12.652 12.582C17.2595 7.97443 23.1299 4.83665 29.5207 3.56543C35.9116 2.29421 42.5359 2.94665 48.5559 5.44024C54.576 7.93382 59.7214 12.1566 63.3415 17.5745C66.9617 22.9924 68.8939 29.3621 68.8939 35.8782C68.8843 44.613 65.4102 52.9873 59.2337 59.1637C53.0573 65.3402 44.683 68.8143 35.9481 68.8239ZM35.9481 4.11208C29.6648 4.11208 23.5225 5.97534 18.2982 9.46624C13.0738 12.9571 9.00189 17.9189 6.59748 23.724C4.19306 29.5291 3.56408 35.9169 4.79009 42.0795C6.0161 48.2421 9.04203 53.9027 13.4852 58.3455C17.9284 62.7883 23.5893 65.8138 29.752 67.0393C35.9147 68.2648 42.3024 67.6353 48.1073 65.2304C53.9122 62.8255 58.8736 58.7533 62.3641 53.5286C65.8546 48.3039 67.7173 42.1615 67.7168 35.8782C67.7072 27.4555 64.3571 19.3806 58.4014 13.4249C52.4457 7.46922 44.3708 4.12169 35.9481 4.11208Z" fill="white"/>
<g opacity="0.1">
<path d="M71.7174 37.2911C71.9757 36.6168 72.0569 35.8875 71.9533 35.1729C71.7949 34.8008 71.7146 34.4002 71.7174 33.9958V33.0546C71.7174 32.2301 71.4815 31.7583 71.4815 31.0556C71.3316 29.622 71.0557 28.2043 70.657 26.8191C69.1063 20.4942 65.8511 14.7155 61.2454 10.1116C58.7975 7.6482 55.9787 5.58355 52.8916 3.99276C50.1381 2.72309 47.3093 1.62344 44.4212 0.700002H43.2441V0.461471H41.5977V0.228126H39.3628V-0.0078125H32.5361V0.228126H30.309V0.464063H28.8959V0.700002H27.4829C24.2222 1.67928 21.0676 2.98212 18.0661 4.58909C16.4258 5.53584 14.8526 6.59445 13.3577 7.7574C11.7037 9.15574 10.1325 10.6491 8.65192 12.2299C7.46418 13.5119 6.43682 14.9336 5.59251 16.4638C4.76802 17.8768 3.94613 19.1706 3.23831 20.581C3.00237 20.9336 3.00237 21.4055 2.76644 21.8774L2.29456 22.8185C2.05862 23.5238 1.94195 24.1149 1.70601 24.8175C1.18995 26.1924 0.796059 27.61 0.528913 29.0541C-0.40953 34.6625 -0.0880388 40.4095 1.47007 45.8783C2.30184 48.7969 3.48867 51.6025 5.00396 54.232C6.71767 57.331 8.9454 60.1163 11.5921 62.4691C14.1522 64.6941 16.9513 66.628 19.9381 68.2353C22.6449 69.5317 25.4683 70.2343 28.2918 71.2947H29.7049V71.5307H31.9398V71.7666H34.9992V72H36.6456V71.764H39.705V71.5281H41.9399V71.2922H43.353C46.5549 70.2503 49.6969 69.0325 52.7646 67.6442C56.3599 65.869 59.5608 63.3876 62.1762 60.3483C66.4499 55.6415 69.376 49.8699 70.6466 43.6407C70.743 43.412 70.8218 43.1762 70.8825 42.9355V42.4636C71.0174 42.0847 71.0969 41.6882 71.1185 41.2865V40.3454C71.1185 39.9928 71.3544 39.7568 71.3544 39.4042C71.692 38.7547 71.8188 38.0161 71.7174 37.2911Z" fill="white"/>
<path d="M35.9481 3.52088C42.3484 3.51831 48.6056 5.41385 53.9284 8.96775C59.2512 12.5216 63.4005 17.5743 65.8516 23.4865C68.3026 29.3988 68.9452 35.9052 67.6982 42.1827C66.4511 48.4603 63.3704 54.227 58.8457 58.7535C54.321 63.2801 48.5555 66.3631 42.2785 67.6126C36.0014 68.8622 29.4948 68.2222 23.5815 65.7735C17.6683 63.3248 12.614 59.1775 9.05796 53.8561C5.50193 48.5348 3.60389 42.2783 3.60389 35.8781C3.6015 31.6282 4.43682 27.4195 6.06208 23.4927C7.68733 19.5659 10.0707 15.9979 13.0758 12.9928C16.0809 9.98765 19.6489 7.60432 23.5757 5.97907C27.5025 4.35381 31.7112 3.51849 35.9611 3.52088H35.9481Z" fill="white"/>
<path d="M35.9481 68.8239C29.4321 68.8239 23.0624 66.8917 17.6445 63.2716C12.2266 59.6514 8.00381 54.506 5.51023 48.486C3.01664 42.4659 2.3642 35.8416 3.63542 29.4508C4.90664 23.0599 8.04442 17.1895 12.652 12.582C17.2595 7.97443 23.1299 4.83665 29.5207 3.56543C35.9116 2.29421 42.5359 2.94665 48.5559 5.44024C54.576 7.93382 59.7214 12.1566 63.3415 17.5745C66.9617 22.9924 68.8939 29.3621 68.8939 35.8782C68.8843 44.613 65.4102 52.9873 59.2337 59.1637C53.0573 65.3402 44.683 68.8143 35.9481 68.8239ZM35.9481 4.11208C29.6648 4.11208 23.5225 5.97534 18.2982 9.46624C13.0738 12.9571 9.00189 17.9189 6.59748 23.724C4.19306 29.5291 3.56408 35.9169 4.79009 42.0795C6.0161 48.2421 9.04203 53.9027 13.4852 58.3455C17.9284 62.7883 23.5893 65.8138 29.752 67.0393C35.9147 68.2648 42.3024 67.6353 48.1073 65.2304C53.9122 62.8255 58.8736 58.7533 62.3641 53.5286C65.8546 48.3039 67.7173 42.1615 67.7168 35.8782C67.7072 27.4555 64.3571 19.3806 58.4014 13.4249C52.4457 7.46922 44.3708 4.12169 35.9481 4.11208Z" fill="white"/>
</g>
<path d="M53.125 50.1148C52.1947 53.3773 50.3092 56.2867 47.7114 58.4686C44.8365 60.578 41.3916 61.77 37.8279 61.8884L37.0034 56.4748C39.1247 56.3348 41.1818 55.6894 43.003 54.5925C43.5044 54.1529 43.9764 53.6809 44.416 53.1794L34.6544 21.8774H42.7722L48.4218 45.2949L54.4213 21.8774H62.3058L53.125 50.1148Z" fill="white"/>
<path d="M24.7709 20.817C26.4943 20.7646 28.2117 21.0445 29.8293 21.6415C31.4152 22.2562 32.8866 23.1326 34.1825 24.2342L30.8897 28.7015C30.0524 28.0843 29.1436 27.5707 28.1829 27.1718C27.2808 26.8347 26.3222 26.6745 25.3594 26.6999C21.3589 26.6999 19.3599 29.7593 19.3599 35.9948C19.127 38.3375 19.664 40.6922 20.8896 42.7022C21.4061 43.3847 22.0867 43.9258 22.868 44.2752C23.6494 44.6247 24.5064 44.7712 25.3594 44.7012C26.2842 44.7269 27.2047 44.5664 28.0663 44.2293C29.0811 43.7876 30.0644 43.2764 31.009 42.6996L34.3044 47.4054C31.7058 49.5904 28.4041 50.761 25.0094 50.7008C22.4649 50.76 19.9494 50.1512 17.7135 48.9351C15.6581 47.7204 14.0178 45.9129 13.0077 43.7497C11.8742 41.2784 11.3115 38.5836 11.3613 35.8652C11.3242 33.148 11.8863 30.456 13.0077 27.9807C14.0138 25.7601 15.649 23.8833 17.7109 22.5826C19.8825 21.4205 22.3079 20.814 24.7709 20.817Z" fill="white"/>
</g>
<defs>
<clipPath id="clip0_1118_114">
<rect width="72" height="72" fill="white"/>
</clipPath>
</defs>
</svg>
