<svg width="72" height="72" viewBox="0 0 72 72" fill="none" xmlns="http://www.w3.org/2000/svg">
<g clip-path="url(#clip0_1118_62)">
<path d="M19.8 19.6313L15.1312 14.9625V48.5438L15.1875 50.1188C15.1875 50.85 15.3 51.6938 15.5812 52.5375L52.4813 65.5313L61.65 61.4813L19.8 19.6313Z" fill="#00C4B3"/>
<path d="M61.65 61.4812L52.4813 65.5312L15.6937 52.5375C16.425 55.2375 17.9437 58.2187 19.6312 59.9625L31.6125 71.8875L58.3875 71.9437L61.65 61.4812Z" fill="#22D3C5"/>
<path d="M0.95625 36.6187C-0.225 37.8562 0.39375 40.5 2.25 42.4688L10.5188 50.7938L15.6938 52.65C15.525 51.8062 15.3 50.9625 15.3 50.2313L15.2438 48.6562L15.1313 15.0188M61.65 61.4813L65.7 52.2563L52.7625 15.3562C51.9188 15.1875 51.075 15.0188 50.3438 14.9625L48.7125 14.9062L15.1875 14.9625" fill="#0075C9"/>
<path d="M61.65 61.4812L71.6062 58.2187V30.825L60.1312 19.2937C58.4437 17.6062 55.4625 16.0312 52.7062 15.3562L65.7 52.2562" fill="#00A8E1"/>
<path d="M50.9062 10.2375L42.5812 1.96875C40.6687 0.0562467 38.0812 -0.506253 36.7312 0.674997L15.1312 14.9625H48.6L50.2313 15.0187C50.9625 15.0187 51.8062 15.1312 52.65 15.4125L50.9062 10.2375Z" fill="#00C4B3"/>
</g>
<defs>
<clipPath id="clip0_1118_62">
<rect width="72" height="72" fill="white"/>
</clipPath>
</defs>
</svg>
