<svg width="72" height="72" viewBox="0 0 72 72" fill="none" xmlns="http://www.w3.org/2000/svg">
<path fill-rule="evenodd" clip-rule="evenodd" d="M41.5125 28.575H47.8688V35.0437H51.075C52.5375 35.0437 54.0563 34.7625 55.4625 34.3125C56.1375 34.0875 56.925 33.75 57.6 33.3562C56.7 32.175 56.25 30.7125 56.1375 29.25C55.9688 27.2812 56.3625 24.6937 57.7125 23.175L58.3875 22.3875L59.175 23.0062C61.2 24.6375 62.8313 26.8312 63.1688 29.4187C65.5875 28.6875 68.4 28.8562 70.5375 30.0937L71.3813 30.6L70.9313 31.5C69.1313 34.9875 65.3625 36.1125 61.7063 35.8875C56.1938 49.5562 44.2688 56.025 29.7563 56.025C22.275 56.025 15.4125 53.2125 11.475 46.575L11.4188 46.4625L10.8563 45.2812C9.50626 42.3562 9.11251 39.15 9.39376 35.9437L9.50626 34.9875H14.9063V28.575H21.2625V22.275H33.9188V15.9187H41.5125V28.575Z" fill="#3A4D54"/>
<path d="M62.1 30.9937C62.55 27.675 60.075 25.0875 58.5 23.85C56.7562 25.875 56.475 31.275 59.2312 33.525C57.6562 34.875 54.45 36.1687 51.075 36.1687H10.4625C10.125 39.6562 10.7437 42.8625 12.15 45.6187L12.6 46.4625C12.8812 46.9687 13.2187 47.4187 13.5562 47.925C15.2437 48.0375 16.7625 48.0937 18.1687 48.0375C20.925 47.9812 23.175 47.6437 24.9187 47.0812C25.2 46.9687 25.425 47.1375 25.5375 47.3625C25.65 47.6437 25.4812 47.8687 25.2562 47.9812C25.0312 48.0375 24.8062 48.15 24.525 48.2062C23.175 48.6 21.7125 48.825 19.8562 48.9375H19.5187C18.7875 48.9937 18 48.9937 17.1562 48.9937C16.2562 48.9937 15.4125 48.9937 14.4 48.9375C17.775 52.7625 23.0625 55.0125 29.7 55.0125C43.7625 55.0125 55.6875 48.7687 60.9187 34.8187C64.6875 35.2125 68.2875 34.2562 69.9187 31.05C67.3875 29.5312 64.0125 30.0375 62.1 30.9937Z" fill="#00AADA"/>
<path d="M62.1 30.9937C62.55 27.675 60.075 25.0875 58.5 23.85C56.7562 25.875 56.475 31.275 59.2313 33.525C57.6562 34.875 54.45 36.1687 51.075 36.1687H12.825C12.6562 41.5125 14.625 45.5625 18.1687 47.9812C20.925 47.925 23.175 47.5875 24.9187 47.025C25.2 46.9125 25.425 47.0812 25.5375 47.3062C25.65 47.5875 25.4813 47.8125 25.2563 47.925C25.0312 47.9812 24.8062 48.0937 24.525 48.15C23.175 48.5437 21.6 48.825 19.7437 48.9375L19.6875 48.8812C24.4687 51.3562 31.3875 51.3 39.375 48.2625C48.2625 44.8312 56.5875 38.3062 62.3812 30.8812C62.2687 30.9375 62.1562 30.9375 62.1 30.9937Z" fill="#28B8EB"/>
<path d="M10.5188 40.3875C10.7438 42.2437 11.3063 43.9874 12.15 45.6187L12.6 46.4624C12.8813 46.9687 13.2188 47.4187 13.5563 47.9249C15.2438 48.0374 16.7625 48.0937 18.1688 48.0375C20.925 47.9812 23.175 47.6437 24.9188 47.0812C25.2 46.9687 25.425 47.1374 25.5375 47.3624C25.65 47.6437 25.4813 47.8687 25.2563 47.9812C25.0313 48.0375 24.8063 48.1499 24.525 48.2062C23.175 48.5999 21.6 48.8812 19.7438 48.9937H19.5188C18.7875 49.0499 18 49.0499 17.2125 49.0499C16.3125 49.0499 15.4125 49.0499 14.4563 48.9937C17.8313 52.8187 23.175 55.0687 29.8125 55.0687C41.85 55.0687 52.3125 50.5125 58.3875 40.4437H10.5188V40.3875Z" fill="#028BB8"/>
<path d="M13.2188 40.3875C13.95 43.65 15.6375 46.2375 18.1687 47.9812C20.925 47.925 23.175 47.5874 24.9187 47.0249C25.2 46.9124 25.425 47.0812 25.5375 47.3062C25.65 47.5874 25.4813 47.8124 25.2563 47.9249C25.0313 47.9812 24.8062 48.0937 24.525 48.1499C23.175 48.5437 21.6 48.8249 19.6875 48.9374C24.4688 51.4124 31.3875 51.3562 39.3188 48.3187C44.1 46.4625 48.7687 43.7062 52.9312 40.3875H13.2188Z" fill="#019BC6"/>
<path fill-rule="evenodd" clip-rule="evenodd" d="M15.975 29.6438H21.4875V35.1562H15.975V29.6438ZM16.425 30.0938H16.875V34.65H16.425V30.0938ZM17.2125 30.0938H17.6625V34.65H17.2125V30.0938ZM18.0563 30.0938H18.5063V34.65H18.0563V30.0938ZM18.9 30.0938H19.35V34.65H18.9V30.0938ZM19.7438 30.0938H20.1938V34.65H19.7438V30.0938ZM20.5875 30.0938H21.0375V34.65H20.5875V30.0938ZM22.275 23.3438H27.7875V28.8562H22.275V23.3438ZM22.7813 23.7937H23.2313V28.35H22.7813V23.7937ZM23.5688 23.7937H24.0188V28.35H23.5688V23.7937ZM24.4125 23.7937H24.8625V28.35H24.4125V23.7937ZM25.2563 23.7937H25.7063V28.35H25.2563V23.7937ZM26.0438 23.7937H26.4938V28.35H26.0438V23.7937ZM26.8875 23.7937H27.3375V28.35H26.8875V23.7937Z" fill="#00ACD3"/>
<path fill-rule="evenodd" clip-rule="evenodd" d="M22.275 29.6438H27.7875V35.1563H22.275V29.6438ZM22.7812 30.0938H23.2312V34.65H22.7812V30.0938ZM23.5687 30.0938H24.0187V34.65H23.5687V30.0938ZM24.4125 30.0938H24.8625V34.65H24.4125V30.0938ZM25.2562 30.0938H25.7062V34.65H25.2562V30.0938ZM26.0437 30.0938H26.4937V34.65H26.0437V30.0938ZM26.8875 30.0938H27.3375V34.65H26.8875V30.0938Z" fill="#23C2EE"/>
<path fill-rule="evenodd" clip-rule="evenodd" d="M28.6313 29.6438H34.1438V35.1563H28.6313V29.6438ZM29.0813 30.0938H29.5313V34.65H29.0813V30.0938ZM29.925 30.0938H30.375V34.65H29.925V30.0938ZM30.7688 30.0938H31.2188V34.65H30.7688V30.0938ZM31.5563 30.0938H32.0063V34.65H31.5563V30.0938ZM32.4 30.0938H32.85V34.65H32.4V30.0938ZM33.2438 30.0938H33.6938V34.65H33.2438V30.0938Z" fill="#00ACD3"/>
<path fill-rule="evenodd" clip-rule="evenodd" d="M28.6313 23.3438H34.1438V28.8562H28.6313V23.3438ZM29.0813 23.7937H29.5313V28.35H29.0813V23.7937ZM29.925 23.7937H30.375V28.35H29.925V23.7937ZM30.7688 23.7937H31.2188V28.35H30.7688V23.7937ZM31.5563 23.7937H32.0063V28.35H31.5563V23.7937ZM32.4 23.7937H32.85V28.35H32.4V23.7937ZM33.2438 23.7937H33.6938V28.35H33.2438V23.7937ZM34.9875 29.6438H40.5V35.1562H34.9875V29.6438ZM35.4375 30.0938H35.8875V34.65H35.4375V30.0938ZM36.2813 30.0938H36.7313V34.65H36.2813V30.0938ZM37.0688 30.0938H37.5188V34.65H37.0688V30.0938ZM37.9125 30.0938H38.3625V34.65H37.9125V30.0938ZM38.7563 30.0938H39.2063V34.65H38.7563V30.0938ZM39.6 30.0938H40.05V34.65H39.6V30.0938Z" fill="#23C2EE"/>
<path fill-rule="evenodd" clip-rule="evenodd" d="M34.9875 23.3438H40.5V28.8562H34.9875V23.3438ZM35.4375 23.7937H35.8875V28.35H35.4375V23.7937ZM36.2813 23.7937H36.7313V28.35H36.2813V23.7937ZM37.0688 23.7937H37.5188V28.35H37.0688V23.7937ZM37.9125 23.7937H38.3625V28.35H37.9125V23.7937ZM38.7563 23.7937H39.2063V28.35H38.7563V23.7937ZM39.6 23.7937H40.05V28.35H39.6V23.7937Z" fill="#00ACD3"/>
<path fill-rule="evenodd" clip-rule="evenodd" d="M34.9875 16.9875H40.5V22.5H34.9875V16.9875ZM35.4375 17.4375H35.8875V21.9938H35.4375V17.4375ZM36.2813 17.4375H36.7313V21.9938H36.2813V17.4375ZM37.0688 17.4375H37.5188V21.9938H37.0688V17.4375ZM37.9125 17.4375H38.3625V21.9938H37.9125V17.4375ZM38.7563 17.4375H39.2063V21.9938H38.7563V17.4375ZM39.6 17.4375H40.05V21.9938H39.6V17.4375Z" fill="#23C2EE"/>
<path fill-rule="evenodd" clip-rule="evenodd" d="M41.3438 29.6438H46.8563V35.1563H41.3438V29.6438ZM41.7938 30.0938H42.2437V34.65H41.7938V30.0938ZM42.5812 30.0938H43.0312V34.65H42.5812V30.0938ZM43.425 30.0938H43.875V34.65H43.425V30.0938ZM44.2687 30.0938H44.7188V34.65H44.2687V30.0938ZM45.1125 30.0938H45.5625V34.65H45.1125V30.0938ZM45.9562 30.0938H46.4062V34.65H45.9562V30.0938Z" fill="#00ACD3"/>
<path fill-rule="evenodd" clip-rule="evenodd" d="M27.45 44.0437C28.2937 44.0437 28.9687 44.7187 28.9687 45.5624C28.9687 46.4062 28.2937 47.0812 27.45 47.0812C26.6062 47.0812 25.9312 46.4062 25.9312 45.5624C25.9312 44.7187 26.6062 44.0437 27.45 44.0437Z" fill="#D4EEF1"/>
<path fill-rule="evenodd" clip-rule="evenodd" d="M27.45 44.4938C27.5625 44.4938 27.7312 44.4938 27.8437 44.55C27.7312 44.6063 27.6187 44.775 27.6187 44.9438C27.6187 45.1688 27.8437 45.3938 28.0687 45.3938C28.2375 45.3938 28.4062 45.2813 28.4625 45.1688C28.5187 45.2813 28.5187 45.45 28.5187 45.5625C28.5187 46.1813 28.0125 46.6313 27.45 46.6313C26.8312 46.6313 26.3812 46.125 26.3812 45.5625C26.3812 45 26.8312 44.4938 27.45 44.4938ZM0.618744 40.95H71.1562C69.6375 40.5563 66.3187 40.05 66.825 38.025C64.0125 41.2313 57.3187 40.275 55.575 38.7C53.6625 41.4563 42.6375 40.3875 41.9062 38.25C39.5437 41.0625 32.175 41.0625 29.8125 38.25C29.025 40.3875 18 41.4563 16.1437 38.7C14.4562 40.275 7.70624 41.2313 4.89374 38.025C5.51249 39.9938 2.13749 40.5563 0.618744 40.95Z" fill="#3A4D54"/>
<path d="M31.5 55.0125C27.7313 53.2125 25.7063 50.7938 24.525 48.15C23.1188 48.5438 21.4313 48.825 19.5188 48.9375C18.7875 48.9938 18 48.9938 17.2125 48.9938C16.2563 48.9938 15.3 48.9938 14.2875 48.9375C17.6625 52.3125 21.9375 54.9563 29.7563 55.0125H31.5Z" fill="#BFDBE0"/>
<path d="M25.9313 50.5688C25.425 49.8375 24.9188 48.9938 24.525 48.15C23.1188 48.5438 21.4313 48.825 19.5188 48.9375C20.8125 49.6125 22.725 50.2875 25.9313 50.5688Z" fill="#D4EEF1"/>
</svg>
