<svg width="72" height="72" viewBox="0 0 72 72" fill="none" xmlns="http://www.w3.org/2000/svg">
<g clip-path="url(#clip0_1205_1016)">
<path d="M25.5938 72.5625C32.2875 72.5625 37.6875 67.1625 37.6875 60.4688V48.375H25.5938C18.9 48.375 13.5 53.775 13.5 60.4688C13.5 67.1625 18.9 72.5625 25.5938 72.5625Z" fill="#0ACF83"/>
<path d="M13.5 36.2812C13.5 29.5875 18.9 24.1875 25.5938 24.1875H37.6875V48.375H25.5938C18.9 48.375 13.5 42.975 13.5 36.2812Z" fill="#A259FF"/>
<path d="M13.5 12.0938C13.5 5.4 18.9 0 25.5938 0H37.6875V24.1875H25.5938C18.9 24.1875 13.5 18.7875 13.5 12.0938Z" fill="#F24E1E"/>
<path d="M37.6875 0H49.7812C56.475 0 61.875 5.4 61.875 12.0938C61.875 18.7875 56.475 24.1875 49.7812 24.1875H37.6875V0Z" fill="#FF7262"/>
<path d="M61.875 36.2812C61.875 42.975 56.475 48.375 49.7812 48.375C43.0875 48.375 37.6875 42.975 37.6875 36.2812C37.6875 29.5875 43.0875 24.1875 49.7812 24.1875C56.475 24.1875 61.875 29.5875 61.875 36.2812Z" fill="#1ABCFE"/>
</g>
<defs>
<clipPath id="clip0_1205_1016">
<rect width="72" height="72" fill="white"/>
</clipPath>
</defs>
</svg>
