<svg width="72" height="72" viewBox="0 0 72 72" fill="none" xmlns="http://www.w3.org/2000/svg">
<g clip-path="url(#clip0_1118_876)">
<path d="M70.6421 32.7921L39.2062 1.35793C37.397 -0.45248 34.4607 -0.45248 32.6492 1.35793L26.1214 7.88574L34.4022 16.1666C36.3265 15.5163 38.5332 15.9526 40.0672 17.4865C41.6084 19.0303 42.0415 21.2558 41.3755 23.1863L49.356 31.1671C51.2868 30.5019 53.5146 30.9322 55.0567 32.4768C57.2119 34.6312 57.2119 38.1229 55.0567 40.2787C52.9009 42.4348 49.4092 42.4348 47.2523 40.2787C45.6311 38.6559 45.2306 36.2751 46.0513 34.278L38.6089 26.8355L38.608 46.4209C39.1475 46.6877 39.6403 47.0401 40.0672 47.4644C42.2224 49.6187 42.2224 53.1107 40.0672 55.2682C37.9114 57.4231 34.418 57.4231 32.2653 55.2682C30.1101 53.1107 30.1101 49.619 32.2653 47.4646C32.7818 46.9479 33.3956 46.5387 34.0712 46.2606V26.4927C33.3946 26.2165 32.7804 25.807 32.2653 25.2886C30.6323 23.658 30.2397 21.262 31.0764 19.257L22.9134 11.0931L1.35844 32.6467C-0.452813 34.4588 -0.452813 37.3953 1.35844 39.206L32.7949 70.6408C34.6047 72.4515 37.5404 72.4515 39.3525 70.6408L70.6418 39.352C72.4525 37.5407 72.4528 34.6025 70.6421 32.7921Z" fill="#DE4C36"/>
</g>
<defs>
<clipPath id="clip0_1118_876">
<rect width="72" height="72" fill="white"/>
</clipPath>
</defs>
</svg>
