<svg width="72" height="72" viewBox="0 0 72 72" fill="none" xmlns="http://www.w3.org/2000/svg">
<mask id="mask0_1118_891" style="mask-type:luminance" maskUnits="userSpaceOnUse" x="10" y="0" width="52" height="72">
<path d="M10.575 0.5625H61.4813V71.4375H10.575V0.5625Z" fill="white"/>
</mask>
<g mask="url(#mask0_1118_891)">
<path fill-rule="evenodd" clip-rule="evenodd" d="M11.8688 38.6438C11.9813 40.6125 13.95 39.7125 14.85 39.0938C15.6938 38.475 15.975 38.9813 16.0313 37.8C16.0875 37.0125 16.1438 36.2813 16.1438 35.4938C14.85 35.3813 13.4438 35.6625 12.375 36.45C11.8688 36.8438 10.8 38.1375 11.8688 38.6438Z" fill="#F6D2A2"/>
</g>
<mask id="mask1_1118_891" style="mask-type:luminance" maskUnits="userSpaceOnUse" x="10" y="0" width="52" height="72">
<path d="M10.575 0.5625H61.4813V71.4375H10.575V0.5625Z" fill="white"/>
</mask>
<g mask="url(#mask1_1118_891)">
<path d="M12.9375 40.0499C12.5438 40.0499 11.8125 39.8812 11.7 38.7562C11.3625 38.5312 11.25 38.2499 11.25 38.0812C11.1938 37.4062 11.925 36.6187 12.3188 36.3375C13.2188 35.6625 14.4 35.325 15.6375 35.325H16.3688V35.4937C16.425 36.1125 16.3688 36.7312 16.3125 37.2937C16.3125 37.4625 16.3125 37.6312 16.2563 37.7999C16.2 38.6437 16.0313 38.7562 15.6375 38.9249C15.4688 38.9812 15.3 39.0375 15.0188 39.2625C14.7375 39.4312 13.7813 40.0499 12.9375 40.0499ZM15.6375 35.6625C14.4563 35.6625 13.3875 36 12.5438 36.6187C12.15 36.9 11.5875 37.575 11.6438 38.025C11.6438 38.1937 11.7563 38.3625 11.9813 38.475L12.0938 38.5312V38.6437C12.15 39.5437 12.6 39.6562 12.9375 39.6562C13.5 39.6562 14.2875 39.2624 14.7938 38.9249C15.1313 38.6999 15.3563 38.6437 15.525 38.5875C15.8063 38.475 15.8625 38.4749 15.9188 37.7999C15.9188 37.6312 15.9188 37.4625 15.975 37.2937C16.0313 36.7875 16.0313 36.225 16.0313 35.7187C15.8625 35.6625 15.75 35.6625 15.6375 35.6625Z" fill="black"/>
</g>
<mask id="mask2_1118_891" style="mask-type:luminance" maskUnits="userSpaceOnUse" x="10" y="0" width="52" height="72">
<path d="M10.575 0.5625H61.4813V71.4375H10.575V0.5625Z" fill="white"/>
</mask>
<g mask="url(#mask2_1118_891)">
<path fill-rule="evenodd" clip-rule="evenodd" d="M11.8688 38.6437C12.15 38.5312 12.4875 38.475 12.6563 38.1937L11.8688 38.6437Z" fill="#C6B198"/>
</g>
<mask id="mask3_1118_891" style="mask-type:luminance" maskUnits="userSpaceOnUse" x="10" y="0" width="52" height="72">
<path d="M10.575 0.5625H61.4813V71.4375H10.575V0.5625Z" fill="white"/>
</mask>
<g mask="url(#mask3_1118_891)">
<path d="M11.8688 38.8125C11.8125 38.8125 11.7 38.7563 11.7 38.7C11.6438 38.5875 11.7 38.475 11.8125 38.475C11.8688 38.475 11.925 38.4188 11.925 38.4188C12.15 38.3063 12.375 38.25 12.4875 38.0813C12.5438 38.025 12.6563 37.9688 12.7688 38.025C12.825 38.0813 12.8813 38.1938 12.825 38.3063C12.6 38.5875 12.3188 38.7 12.0938 38.7563L11.9813 38.8125H11.8688Z" fill="black"/>
</g>
<mask id="mask4_1118_891" style="mask-type:luminance" maskUnits="userSpaceOnUse" x="10" y="0" width="52" height="72">
<path d="M10.575 0.5625H61.4813V71.4375H10.575V0.5625Z" fill="white"/>
</mask>
<g mask="url(#mask4_1118_891)">
<path fill-rule="evenodd" clip-rule="evenodd" d="M16.4813 14.85C8.83126 12.7125 14.5125 2.98128 20.6438 6.97503L16.4813 14.85Z" fill="#6AD7E5"/>
</g>
<mask id="mask5_1118_891" style="mask-type:luminance" maskUnits="userSpaceOnUse" x="10" y="0" width="52" height="72">
<path d="M10.575 0.5625H61.4813V71.4375H10.575V0.5625Z" fill="white"/>
</mask>
<g mask="url(#mask5_1118_891)">
<path d="M16.5938 15.075L16.425 15.0187C12.4875 13.8937 12.5438 11.0812 12.6563 10.2375C12.9375 8.09998 14.9625 5.84998 17.6625 5.84998C18.7313 5.84998 19.7438 6.18748 20.7563 6.86248L20.925 6.97498L16.5938 15.075ZM17.6625 6.24373C15.1313 6.24373 13.275 8.32498 12.9938 10.2937C12.7125 12.3187 13.95 13.8937 16.3688 14.625L20.3625 7.03123C19.5188 6.52498 18.6188 6.24373 17.6625 6.24373Z" fill="black"/>
</g>
<mask id="mask6_1118_891" style="mask-type:luminance" maskUnits="userSpaceOnUse" x="10" y="0" width="52" height="72">
<path d="M10.575 0.5625H61.4813V71.4375H10.575V0.5625Z" fill="white"/>
</mask>
<g mask="url(#mask6_1118_891)">
<path fill-rule="evenodd" clip-rule="evenodd" d="M50.4 6.24379C56.4188 2.02504 61.9313 11.5875 54.9 14.0063L50.4 6.24379Z" fill="#6AD7E5"/>
</g>
<mask id="mask7_1118_891" style="mask-type:luminance" maskUnits="userSpaceOnUse" x="10" y="0" width="52" height="72">
<path d="M10.575 0.5625H61.4813V71.4375H10.575V0.5625Z" fill="white"/>
</mask>
<g mask="url(#mask7_1118_891)">
<path d="M54.8438 14.2312L50.175 6.18745L50.3438 6.07495C51.4125 5.3437 52.4813 4.94995 53.55 4.94995C56.1375 4.94995 57.9938 7.08745 58.3875 9.1687C58.5563 10.0125 58.725 12.8812 55.0125 14.1187L54.8438 14.2312ZM50.6813 6.3562L55.0125 13.8375C57.2063 13.05 58.3313 11.3625 57.9938 9.33745C57.6563 7.42495 55.9125 5.4562 53.55 5.4562C52.5938 5.39995 51.6375 5.6812 50.6813 6.3562Z" fill="black"/>
</g>
<mask id="mask8_1118_891" style="mask-type:luminance" maskUnits="userSpaceOnUse" x="10" y="0" width="52" height="72">
<path d="M10.575 0.5625H61.4813V71.4375H10.575V0.5625Z" fill="white"/>
</mask>
<g mask="url(#mask8_1118_891)">
<path fill-rule="evenodd" clip-rule="evenodd" d="M51.75 63.1687C53.2688 64.125 56.0812 66.9937 53.775 68.3999C51.5812 70.4249 50.3438 66.1499 48.375 65.5874C49.2188 64.4624 50.2875 63.3937 51.75 63.1687Z" fill="#F6D2A2"/>
</g>
<mask id="mask9_1118_891" style="mask-type:luminance" maskUnits="userSpaceOnUse" x="10" y="0" width="52" height="72">
<path d="M10.575 0.5625H61.4813V71.4375H10.575V0.5625Z" fill="white"/>
</mask>
<g mask="url(#mask9_1118_891)">
<path d="M52.5938 69.1313C51.6938 69.1313 50.9063 68.2313 50.2313 67.3875C49.6125 66.7125 48.9938 65.9813 48.3188 65.7563L48.0375 65.7L48.2063 65.475C48.8813 64.5188 50.0063 63.2812 51.6938 63H51.75L51.8063 63.0562C52.7625 63.675 54.8438 65.4187 54.7875 67.05C54.7875 67.6687 54.45 68.175 53.8313 68.5688C53.4375 68.9625 53.0438 69.1313 52.5938 69.1313ZM48.6563 65.475C49.3313 65.7563 49.8938 66.4875 50.4563 67.1063C51.1313 67.95 51.8063 68.6812 52.5375 68.6812C52.875 68.6812 53.2125 68.5125 53.55 68.175H53.6063C54.1125 67.8375 54.3938 67.4437 54.3938 66.9375C54.3938 65.6437 52.7625 64.0125 51.6375 63.2812C50.625 63.5625 49.6125 64.2375 48.6563 65.475ZM53.775 68.5688C53.7188 68.5688 53.6625 68.5125 53.6063 68.4562C53.4938 68.2312 53.3813 67.95 53.325 67.725C53.1563 67.275 52.9875 66.825 52.65 66.4875C52.5938 66.4312 52.5938 66.3187 52.65 66.2062C52.7063 66.15 52.8188 66.15 52.9313 66.2062C53.325 66.6 53.55 67.1062 53.7188 67.6125L54 68.2875C54.0563 68.4 54 68.5125 53.9438 68.5688H53.775Z" fill="black"/>
</g>
<mask id="mask10_1118_891" style="mask-type:luminance" maskUnits="userSpaceOnUse" x="10" y="0" width="52" height="72">
<path d="M10.575 0.5625H61.4813V71.4375H10.575V0.5625Z" fill="white"/>
</mask>
<g mask="url(#mask10_1118_891)">
<path fill-rule="evenodd" clip-rule="evenodd" d="M24.3 66.4313C22.5 66.7125 21.4875 68.3438 19.9688 69.1875C18.5625 70.0313 18 68.9063 17.8875 68.6813C17.6625 68.5688 17.6625 68.7938 17.325 68.4563C16.0313 66.375 18.675 64.8563 20.0813 63.8438C22.05 63.3938 23.2875 65.0813 24.3 66.4313Z" fill="#F6D2A2"/>
</g>
<mask id="mask11_1118_891" style="mask-type:luminance" maskUnits="userSpaceOnUse" x="10" y="0" width="52" height="72">
<path d="M10.575 0.5625H61.4813V71.4375H10.575V0.5625Z" fill="white"/>
</mask>
<g mask="url(#mask11_1118_891)">
<path d="M19.0125 69.6375C18.2813 69.6375 17.8875 69.0188 17.775 68.7938H17.7188C17.55 68.7938 17.4375 68.7375 17.2125 68.5125V68.4562C15.975 66.4875 18.1125 64.9687 19.5188 63.9562L20.025 63.6187H20.1375C20.3625 63.5625 20.5313 63.5625 20.7563 63.5625C22.4438 63.5625 23.5125 65.025 24.4125 66.2062L24.6938 66.6L24.3563 66.6562C23.2875 66.825 22.5 67.5 21.7125 68.175C21.2063 68.625 20.7 69.0188 20.1375 69.3563C19.6875 69.525 19.35 69.6375 19.0125 69.6375ZM17.775 68.4562C17.8313 68.4562 17.8875 68.4563 18 68.5125H18.0563L18.1125 68.5688C18.225 68.7375 18.5063 69.2437 19.0688 69.2437C19.35 69.2437 19.6313 69.1312 19.9125 68.9625C20.475 68.6812 20.9813 68.2312 21.4313 67.8375C22.1625 67.2187 22.95 66.5438 23.9625 66.2625C23.1188 65.1375 22.1063 63.9 20.7 63.9C20.5313 63.9 20.3625 63.9 20.1938 63.9562L19.7438 64.2938C18.2813 65.3063 16.4813 66.6 17.55 68.2875C17.6063 68.4 17.6625 68.4562 17.775 68.4562ZM17.8875 68.85C17.775 68.85 17.6625 68.7375 17.7188 68.625C17.775 68.0625 18.0563 67.6687 18.3375 67.2188C18.5063 66.9938 18.6188 66.7688 18.7313 66.5438C18.7875 66.4313 18.9 66.4312 18.9563 66.4312C19.0688 66.4875 19.0688 66.6 19.0688 66.6562C18.9563 66.9375 18.7875 67.1625 18.6188 67.3875C18.3375 67.7813 18.1125 68.1188 18.0563 68.5688C18.0563 68.7938 18 68.85 17.8875 68.85Z" fill="black"/>
</g>
<mask id="mask12_1118_891" style="mask-type:luminance" maskUnits="userSpaceOnUse" x="10" y="0" width="52" height="72">
<path d="M10.575 0.5625H61.4813V71.4375H10.575V0.5625Z" fill="white"/>
</mask>
<g mask="url(#mask12_1118_891)">
<path fill-rule="evenodd" clip-rule="evenodd" d="M16.8187 12.2063C15.8062 11.7 15.075 10.9688 15.6937 9.78755C16.2562 8.7188 17.325 8.8313 18.3375 9.33755L16.8187 12.2063ZM53.325 11.1938C54.3375 10.6875 55.0687 9.9563 54.45 8.77505C53.8875 7.7063 52.8187 7.8188 51.8062 8.32505L53.325 11.1938Z" fill="black"/>
</g>
<mask id="mask13_1118_891" style="mask-type:luminance" maskUnits="userSpaceOnUse" x="10" y="0" width="52" height="72">
<path d="M10.575 0.5625H61.4813V71.4375H10.575V0.5625Z" fill="white"/>
</mask>
<g mask="url(#mask13_1118_891)">
<path fill-rule="evenodd" clip-rule="evenodd" d="M60.2437 38.3625C60.1312 40.3313 58.1625 39.4313 57.2625 38.8125C56.4188 38.1938 56.1375 38.7 56.0812 37.5188C56.025 36.7313 55.9688 36 55.9688 35.2125C57.2625 35.1 58.6687 35.3813 59.7375 36.1688C60.3 36.6188 61.3125 37.8563 60.2437 38.3625Z" fill="#F6D2A2"/>
</g>
<mask id="mask14_1118_891" style="mask-type:luminance" maskUnits="userSpaceOnUse" x="10" y="0" width="52" height="72">
<path d="M10.575 0.5625H61.4813V71.4375H10.575V0.5625Z" fill="white"/>
</mask>
<g mask="url(#mask14_1118_891)">
<path d="M59.2313 39.7687C58.3875 39.7687 57.4313 39.15 57.15 38.9812C56.8688 38.8125 56.7 38.6999 56.5313 38.6437C56.0813 38.4749 55.9688 38.3624 55.9125 37.5187C55.9125 37.3499 55.9125 37.1812 55.8563 37.0125C55.8 36.45 55.7438 35.8312 55.8 35.2125V35.0437H56.5313C57.7688 35.0437 58.95 35.3812 59.85 36.0562C60.2438 36.3375 60.975 37.1249 60.9188 37.7999C60.9188 38.0249 60.8063 38.3062 60.4688 38.475C60.3563 39.6 59.625 39.7687 59.2313 39.7687ZM56.1375 35.4375C56.1375 35.9437 56.1375 36.5062 56.1938 37.0125C56.1938 37.1812 56.1938 37.3499 56.25 37.5187C56.3063 38.1937 56.3625 38.1937 56.6438 38.3062C56.8125 38.3625 57.0375 38.4749 57.375 38.6437C57.8813 38.9812 58.6688 39.375 59.2313 39.375C59.5688 39.375 60.0188 39.2624 60.075 38.3624V38.25L60.1875 38.1937C60.4125 38.0812 60.525 37.9687 60.525 37.7437C60.5813 37.2937 60.0188 36.6187 59.625 36.3375C58.7813 35.7187 57.6563 35.3812 56.5313 35.3812C56.4188 35.4375 56.3063 35.4375 56.1375 35.4375Z" fill="black"/>
</g>
<mask id="mask15_1118_891" style="mask-type:luminance" maskUnits="userSpaceOnUse" x="10" y="0" width="52" height="72">
<path d="M10.575 0.5625H61.4813V71.4375H10.575V0.5625Z" fill="white"/>
</mask>
<g mask="url(#mask15_1118_891)">
<path fill-rule="evenodd" clip-rule="evenodd" d="M60.2438 38.3625C59.9625 38.25 59.625 38.1937 59.4563 37.9125L60.2438 38.3625Z" fill="#C6B198"/>
</g>
<mask id="mask16_1118_891" style="mask-type:luminance" maskUnits="userSpaceOnUse" x="10" y="0" width="52" height="72">
<path d="M10.575 0.5625H61.4813V71.4375H10.575V0.5625Z" fill="white"/>
</mask>
<g mask="url(#mask16_1118_891)">
<path d="M60.2438 38.5875H60.1875L60.075 38.5313C59.7938 38.4188 59.5125 38.3625 59.3438 38.0813C59.2875 38.025 59.2875 37.8563 59.4 37.8C59.4563 37.7438 59.625 37.7438 59.6813 37.8563C59.7938 38.025 60.0188 38.0813 60.2438 38.1938C60.3 38.1938 60.3563 38.25 60.3563 38.25C60.4688 38.3063 60.525 38.4188 60.4688 38.475C60.4125 38.5313 60.3 38.5875 60.2438 38.5875Z" fill="black"/>
</g>
<mask id="mask17_1118_891" style="mask-type:luminance" maskUnits="userSpaceOnUse" x="10" y="0" width="52" height="72">
<path d="M10.575 0.5625H61.4813V71.4375H10.575V0.5625Z" fill="white"/>
</mask>
<g mask="url(#mask17_1118_891)">
<path fill-rule="evenodd" clip-rule="evenodd" d="M35.325 2.25C42.975 2.25 50.1187 3.31875 53.8875 10.6875C57.2625 18.9 56.025 27.7875 56.5875 36.5063C57.0375 43.9875 57.9937 52.5938 54.5625 59.5125C50.9062 66.7688 41.7937 68.625 34.3125 68.3438C28.4062 68.1188 21.3187 66.2062 17.9437 60.8062C14.0625 54.5062 15.8625 45.1125 16.1437 38.0812C16.4812 29.7562 13.8937 21.375 16.65 13.275C19.4062 4.78125 27.0562 2.86875 35.325 2.25Z" fill="#6AD7E5"/>
</g>
<mask id="mask18_1118_891" style="mask-type:luminance" maskUnits="userSpaceOnUse" x="10" y="0" width="52" height="72">
<path d="M10.575 0.5625H61.4813V71.4375H10.575V0.5625Z" fill="white"/>
</mask>
<g mask="url(#mask18_1118_891)">
<path d="M35.6063 68.5688H34.2C31.8938 68.5125 28.4063 68.1188 24.975 66.7125C21.6563 65.3625 19.2375 63.45 17.6625 60.9188C14.5125 55.8 15.075 48.7688 15.5813 42.525C15.6938 40.95 15.8063 39.4875 15.8625 38.0813C15.975 35.1563 15.75 32.1188 15.4688 29.25C15.0188 23.9625 14.5688 18.5063 16.3125 13.2188C17.6625 9.28126 20.0813 6.46876 23.7375 4.66876C26.6063 3.26251 30.15 2.47501 35.2125 2.08126C42.75 2.02501 50.2313 3.09376 54 10.575C56.475 16.5938 56.475 23.0625 56.5313 29.3063C56.5313 31.6688 56.5313 34.0875 56.7 36.45C56.7563 37.1813 56.8125 37.9125 56.8125 38.6438C57.2625 45.5063 57.7688 53.2688 54.6188 59.5688C53.0438 62.775 50.2875 65.1375 46.5188 66.6563C43.4813 67.8938 39.6563 68.5688 35.6063 68.5688ZM35.325 2.41876C27.3938 3.03751 19.6313 4.78126 16.7625 13.3313C15.0188 18.5625 15.4688 23.9625 15.9188 29.1938C16.1438 32.1188 16.425 35.1 16.3125 38.0813C16.2563 39.4875 16.1438 40.95 16.0313 42.525C15.525 48.7125 14.9625 55.6875 18.0563 60.6938C19.35 62.775 23.5125 67.725 34.2563 68.1188H35.6625C48.0938 68.1188 52.7063 62.6063 54.3938 59.3438C57.4875 53.1563 56.9813 45.3938 56.5875 38.5875C56.5313 37.8563 56.475 37.125 56.475 36.3938C56.3625 34.0313 56.3063 31.6125 56.3063 29.25C56.25 23.0625 56.25 16.5938 53.8313 10.6313C52.1438 7.31251 49.6125 5.06251 46.125 3.76876C42.525 2.58751 38.475 2.41876 35.325 2.41876Z" fill="black"/>
</g>
<mask id="mask19_1118_891" style="mask-type:luminance" maskUnits="userSpaceOnUse" x="10" y="0" width="52" height="72">
<path d="M10.575 0.5625H61.4813V71.4375H10.575V0.5625Z" fill="white"/>
</mask>
<g mask="url(#mask19_1118_891)">
<path fill-rule="evenodd" clip-rule="evenodd" d="M36.675 12.4875C38.025 20.475 51.075 18.3375 49.2188 10.2937C47.5313 3.09371 36.225 5.11871 36.675 12.4875Z" fill="white"/>
</g>
<mask id="mask20_1118_891" style="mask-type:luminance" maskUnits="userSpaceOnUse" x="10" y="0" width="52" height="72">
<path d="M10.575 0.5625H61.4813V71.4375H10.575V0.5625Z" fill="white"/>
</mask>
<g mask="url(#mask20_1118_891)">
<path d="M42.8625 17.7188C40.3313 17.7188 37.125 16.3688 36.45 12.5438C36.3375 10.7438 36.9 9.11252 38.0813 7.87502C39.375 6.46877 41.3438 5.68127 43.3688 5.68127C45.7313 5.68127 48.5438 6.91877 49.3313 10.35C49.7813 12.2625 49.4438 13.95 48.375 15.3C47.1938 16.7625 45.1125 17.7188 42.8625 17.7188ZM36.8438 12.4875C37.125 14.0625 37.8563 15.3 39.0375 16.2C40.05 16.9875 41.4563 17.3813 42.8625 17.3813C44.9438 17.3813 46.9688 16.4813 48.0938 15.075C49.1063 13.8375 49.3875 12.2063 48.9938 10.4063C48.2625 7.20002 45.6188 6.07502 43.3688 6.07502C41.4563 6.07502 39.6 6.86252 38.3625 8.15627C37.2938 9.28127 36.7313 10.8 36.8438 12.4875Z" fill="black"/>
</g>
<mask id="mask21_1118_891" style="mask-type:luminance" maskUnits="userSpaceOnUse" x="10" y="0" width="52" height="72">
<path d="M10.575 0.5625H61.4813V71.4375H10.575V0.5625Z" fill="white"/>
</mask>
<g mask="url(#mask21_1118_891)">
<path fill-rule="evenodd" clip-rule="evenodd" d="M21.0937 13.7813C22.8937 20.7 33.975 18.9563 33.5812 11.9813C33.075 3.65628 19.35 5.23128 21.0937 13.7813Z" fill="white"/>
</g>
<mask id="mask22_1118_891" style="mask-type:luminance" maskUnits="userSpaceOnUse" x="10" y="0" width="52" height="72">
<path d="M10.575 0.5625H61.4813V71.4375H10.575V0.5625Z" fill="white"/>
</mask>
<g mask="url(#mask22_1118_891)">
<path d="M27 18.3938C24.5813 18.3938 21.7688 17.2125 20.8688 13.8375C20.475 11.8688 20.8688 10.0688 21.9938 8.7188C23.2313 7.20005 25.2563 6.30005 27.45 6.30005C30.375 6.30005 33.4688 8.0438 33.6938 11.9813C33.8063 13.6125 33.3 15.075 32.175 16.2563C30.9938 17.55 29.025 18.3938 27 18.3938ZM27.45 6.6938C25.3688 6.6938 23.4563 7.53755 22.275 8.9438C21.2063 10.2375 20.8688 11.8688 21.2625 13.725C22.05 16.875 24.75 18 27 18C28.9125 18 30.7688 17.2688 31.95 15.975C32.9625 14.9063 33.4688 13.5 33.3563 11.9813C33.2438 9.56255 31.6125 6.6938 27.45 6.6938Z" fill="black"/>
</g>
<mask id="mask23_1118_891" style="mask-type:luminance" maskUnits="userSpaceOnUse" x="10" y="0" width="52" height="72">
<path d="M10.575 0.5625H61.4813V71.4375H10.575V0.5625Z" fill="white"/>
</mask>
<g mask="url(#mask23_1118_891)">
<path fill-rule="evenodd" clip-rule="evenodd" d="M38.25 22.05C38.25 23.0625 38.475 24.2437 38.3063 25.3687C38.025 25.875 37.5188 25.9312 37.0688 26.1C36.45 25.9875 35.9438 25.5937 35.6625 25.0312C35.4938 23.7937 35.7188 22.5562 35.775 21.3187L38.25 22.05Z" fill="white"/>
</g>
<mask id="mask24_1118_891" style="mask-type:luminance" maskUnits="userSpaceOnUse" x="10" y="0" width="52" height="72">
<path d="M10.575 0.5625H61.4813V71.4375H10.575V0.5625Z" fill="white"/>
</mask>
<g mask="url(#mask24_1118_891)">
<path d="M37.0688 26.325C36.3375 26.2125 35.775 25.7625 35.4938 25.1438C35.3813 24.2438 35.4375 23.4 35.4938 22.5563C35.55 22.1625 35.55 21.7688 35.55 21.375V21.15L38.4188 22.05V22.1625C38.4188 22.5 38.475 22.8375 38.475 23.2313C38.5313 23.9625 38.5875 24.75 38.475 25.4813V25.5375C38.25 25.9875 37.8563 26.1 37.4625 26.2688C37.35 26.2125 37.2375 26.2688 37.0688 26.325ZM35.8313 24.975C36.0563 25.4813 36.5063 25.8188 37.0125 25.9313C37.125 25.875 37.2375 25.875 37.2938 25.8188C37.6313 25.7063 37.9125 25.5938 38.0813 25.3125C38.1938 24.6375 38.1375 23.9063 38.0813 23.175C38.0813 22.8375 38.025 22.5 38.025 22.2188L35.8875 21.5438C35.8875 21.8813 35.8313 22.2188 35.8313 22.5C35.775 23.4 35.7188 24.1875 35.8313 24.975Z" fill="black"/>
</g>
<mask id="mask25_1118_891" style="mask-type:luminance" maskUnits="userSpaceOnUse" x="10" y="0" width="52" height="72">
<path d="M10.575 0.5625H61.4813V71.4375H10.575V0.5625Z" fill="white"/>
</mask>
<g mask="url(#mask25_1118_891)">
<path fill-rule="evenodd" clip-rule="evenodd" d="M26.0438 12.6562C26.0438 13.7812 25.2 14.6812 24.1875 14.6812C23.175 14.6812 22.3313 13.7812 22.3313 12.6562C22.3313 11.5312 23.175 10.6312 24.1875 10.6312C25.2 10.6312 26.0438 11.5312 26.0438 12.6562Z" fill="black"/>
</g>
<mask id="mask26_1118_891" style="mask-type:luminance" maskUnits="userSpaceOnUse" x="10" y="0" width="52" height="72">
<path d="M10.575 0.5625H61.4813V71.4375H10.575V0.5625Z" fill="white"/>
</mask>
<g mask="url(#mask26_1118_891)">
<path fill-rule="evenodd" clip-rule="evenodd" d="M25.425 13.1062C25.425 13.3875 25.2 13.6125 24.975 13.6125C24.75 13.6125 24.525 13.3875 24.525 13.1062C24.525 12.825 24.75 12.6 24.975 12.6C25.2563 12.6 25.425 12.825 25.425 13.1062Z" fill="white"/>
</g>
<mask id="mask27_1118_891" style="mask-type:luminance" maskUnits="userSpaceOnUse" x="10" y="0" width="52" height="72">
<path d="M10.575 0.5625H61.4813V71.4375H10.575V0.5625Z" fill="white"/>
</mask>
<g mask="url(#mask27_1118_891)">
<path fill-rule="evenodd" clip-rule="evenodd" d="M41.7375 12.15C41.7375 13.275 40.8938 14.175 39.8813 14.175C38.8688 14.175 38.025 13.275 38.025 12.15C38.025 11.025 38.8688 10.125 39.8813 10.125C40.8938 10.125 41.7375 11.025 41.7375 12.15Z" fill="black"/>
</g>
<mask id="mask28_1118_891" style="mask-type:luminance" maskUnits="userSpaceOnUse" x="10" y="0" width="52" height="72">
<path d="M10.575 0.5625H61.4813V71.4375H10.575V0.5625Z" fill="white"/>
</mask>
<g mask="url(#mask28_1118_891)">
<path fill-rule="evenodd" clip-rule="evenodd" d="M41.175 12.6C41.175 12.8812 41.0063 13.1062 40.725 13.1062C40.5 13.1062 40.275 12.8812 40.275 12.6C40.275 12.3187 40.4438 12.0938 40.725 12.0938C40.95 12.0938 41.175 12.3187 41.175 12.6ZM32.85 21.9375C32.0063 23.9062 33.3 27.9 35.55 24.975C35.3813 23.7375 35.6063 22.5 35.6625 21.2625L32.85 21.9375Z" fill="white"/>
</g>
<mask id="mask29_1118_891" style="mask-type:luminance" maskUnits="userSpaceOnUse" x="10" y="0" width="52" height="72">
<path d="M10.575 0.5625H61.4813V71.4375H10.575V0.5625Z" fill="white"/>
</mask>
<g mask="url(#mask29_1118_891)">
<path d="M34.0313 26.2125C33.6375 26.2125 33.2438 25.9875 32.9625 25.5375C32.3438 24.6375 32.2313 22.95 32.6813 21.8812L32.7375 21.7687L35.8313 20.9812V21.2062L35.775 22.4437C35.7188 23.2875 35.6625 24.075 35.775 24.9187V24.975L35.7188 25.0312C35.1563 25.8187 34.5938 26.2125 34.0313 26.2125ZM33.0188 22.1062C32.6813 23.0625 32.7938 24.5812 33.3 25.3125C33.525 25.65 33.75 25.8187 34.0313 25.8187C34.425 25.8187 34.875 25.4812 35.325 24.9187C35.2125 24.075 35.2688 23.2312 35.3813 22.4437L35.4375 21.4875L33.0188 22.1062Z" fill="black"/>
</g>
<mask id="mask30_1118_891" style="mask-type:luminance" maskUnits="userSpaceOnUse" x="10" y="0" width="52" height="72">
<path d="M10.575 0.5625H61.4813V71.4375H10.575V0.5625Z" fill="white"/>
</mask>
<g mask="url(#mask30_1118_891)">
<path fill-rule="evenodd" clip-rule="evenodd" d="M33.1313 18.1125C31.6125 18.225 30.375 20.0812 31.1625 21.4875C32.2313 23.4 34.5375 21.3187 36 21.4875C37.6875 21.5437 39.0375 23.2875 40.3875 21.825C41.9063 20.1937 39.7125 18.6187 38.0813 17.8875L33.1313 18.1125Z" fill="#F6D2A2"/>
</g>
<mask id="mask31_1118_891" style="mask-type:luminance" maskUnits="userSpaceOnUse" x="10" y="0" width="52" height="72">
<path d="M10.575 0.5625H61.4813V71.4375H10.575V0.5625Z" fill="white"/>
</mask>
<g mask="url(#mask31_1118_891)">
<path d="M39.2063 22.6125C38.7 22.6125 38.1938 22.3875 37.6875 22.1625C37.1813 21.9375 36.6188 21.7125 36 21.7125H35.8313C35.3813 21.7125 34.875 21.8812 34.3125 22.1062C33.6938 22.3312 33.075 22.5 32.5125 22.5C31.8375 22.5 31.3313 22.2188 30.9938 21.6C30.6 20.925 30.6563 20.1375 31.05 19.4062C31.5 18.5625 32.2875 18.0562 33.1313 17.9437L38.1375 17.7188H38.1938C39.4313 18.225 40.8375 19.1812 41.1188 20.3062C41.2313 20.8687 41.0625 21.4313 40.6125 21.9375C40.1625 22.4437 39.7125 22.6125 39.2063 22.6125ZM36.0563 21.375C36.675 21.375 37.2938 21.6563 37.8563 21.8813C38.3625 22.1063 38.8125 22.275 39.2625 22.275C39.6563 22.275 39.9938 22.1063 40.3313 21.7688C40.725 21.375 40.8375 20.925 40.7813 20.475C40.5563 19.5188 39.2063 18.6187 38.1375 18.1687L33.2438 18.3938C32.5125 18.45 31.8375 18.9563 31.4438 19.6313C31.1063 20.25 31.1063 20.925 31.3875 21.4875C31.6688 21.9938 32.0063 22.2188 32.5688 22.2188C33.075 22.2188 33.6375 21.9937 34.2 21.825C34.8188 21.6 35.325 21.4312 35.8875 21.4312C35.8875 21.3187 35.9438 21.3187 36.0563 21.375Z" fill="#231F20"/>
</g>
<mask id="mask32_1118_891" style="mask-type:luminance" maskUnits="userSpaceOnUse" x="10" y="0" width="52" height="72">
<path d="M10.575 0.5625H61.4813V71.4375H10.575V0.5625Z" fill="white"/>
</mask>
<g mask="url(#mask32_1118_891)">
<path fill-rule="evenodd" clip-rule="evenodd" d="M32.9625 18.0563C32.85 15.4125 37.9125 15.075 38.475 17.2688C39.0938 19.5188 33.1875 20.025 32.9625 18.0563Z" fill="black"/>
</g>
</svg>
