<svg width="72" height="72" viewBox="0 0 72 72" fill="none" xmlns="http://www.w3.org/2000/svg">
<path d="M57.4312 1.125H14.5687C10.8562 1.125 7.875 4.10625 7.875 7.81875V64.2375C7.875 67.95 10.8562 70.9312 14.5687 70.9312H57.4875C61.2 70.9312 64.1812 67.95 64.1812 64.2375V7.81875C64.125 4.10625 61.1437 1.125 57.4312 1.125ZM20.8125 61.1437V45.2812L28.7437 53.2125L20.8125 61.1437ZM50.625 61.3125H43.2563L43.3125 61.2V33.4125C43.3125 33.4125 45.0562 26.775 20.9812 36.1125C20.925 36.225 20.8687 10.4062 20.8687 10.4062L28.6875 10.35V26.8875C28.6875 26.8875 50.625 18.225 50.625 33.4688V61.3125ZM47.7 20.25H39.375C42.3563 16.875 45.1125 10.6875 45.1125 10.6875H53.7188C53.7188 10.6875 52.2563 14.625 47.7 20.25Z" fill="#6762A6"/>
</svg>
