<svg width="72" height="72" viewBox="0 0 72 72" fill="none" xmlns="http://www.w3.org/2000/svg">
<path d="M67.5 4.5H4.5V67.5H67.5V4.5Z" fill="#F5DE19"/>
<path d="M46.8203 53.7188C47.357 54.8091 48.191 55.7256 49.226 56.3625C50.2611 56.9995 51.455 57.3309 52.6703 57.3188C55.1228 57.3188 56.691 56.0925 56.691 54.3938C56.691 52.3688 55.08 51.6443 52.38 50.463L50.8995 49.8285C46.6245 48.0083 43.7895 45.729 43.7895 40.9095C43.7895 36.4703 47.1645 33.0885 52.4588 33.0885C54.1726 32.9648 55.8849 33.3483 57.3822 34.1914C58.8795 35.0345 60.0954 36.2997 60.8783 37.8293L56.25 40.788C55.9485 40.0296 55.4237 39.3807 54.745 38.9275C54.0663 38.4742 53.2658 38.2379 52.4498 38.25C52.0937 38.2144 51.7342 38.2533 51.394 38.3643C51.0538 38.4753 50.7405 38.6559 50.474 38.8947C50.2075 39.1335 49.9937 39.4251 49.8461 39.7511C49.6986 40.0771 49.6205 40.4302 49.617 40.788C49.617 42.5633 50.7173 43.2833 53.2575 44.388L54.738 45.0225C59.769 47.1803 62.613 49.3785 62.613 54.3218C62.613 59.652 58.4258 62.5725 52.803 62.5725C50.6122 62.7121 48.4278 62.2147 46.5134 61.1403C44.599 60.066 43.0364 58.4605 42.0143 56.5178L46.8203 53.7188ZM25.9065 54.2318C26.8358 55.881 27.6818 57.276 29.7158 57.276C31.6598 57.276 32.8883 56.5155 32.8883 53.5568V33.426H38.808V53.6355C38.808 59.7645 35.208 62.5545 29.9678 62.5545C28.1154 62.6558 26.2759 62.1942 24.6908 61.2304C23.1057 60.2666 21.8494 58.8457 21.087 57.1545L25.9065 54.2318Z" fill="black"/>
</svg>
