<svg width="72" height="72" viewBox="0 0 72 72" fill="none" xmlns="http://www.w3.org/2000/svg">
<path d="M27.5678 53.5638C27.5678 53.5638 25.1124 54.9917 29.3152 55.4749C34.4068 56.0558 37.009 55.9725 42.6199 54.9105C42.6199 54.9105 44.0951 55.8355 46.1553 56.6366C33.5771 62.0274 17.6883 56.3244 27.5678 53.5638Z" fill="#5E9CC4" stroke="black"/>
<path d="M26.0308 46.5292C26.0308 46.5292 23.2769 48.5677 27.4828 49.0027C32.9218 49.5638 37.217 49.6097 44.6495 48.1786C44.6495 48.1786 45.6775 49.2208 47.294 49.7907C32.0862 54.2377 15.1474 50.1414 26.0308 46.5292Z" fill="#5E9CC4" stroke="black"/>
<path d="M38.9881 34.5961C42.0874 38.1643 38.1738 41.3753 38.1738 41.3753C38.1738 41.3753 46.0434 37.3128 42.4293 32.2255C39.0538 27.4814 36.4652 25.1242 50.4786 16.9969C50.4786 16.9969 28.4822 22.4906 38.9881 34.5961Z" fill="#E76F00" stroke="black"/>
<path d="M55.6238 58.7671C55.6238 58.7671 57.4409 60.2642 53.6227 61.4225C46.3624 63.6219 23.4045 64.286 17.0269 61.5101C14.7343 60.5128 19.0336 59.1287 20.386 58.8383C21.7964 58.5324 22.6024 58.5894 22.6024 58.5894C20.0528 56.7933 6.12287 62.1161 15.5267 63.6404C41.1721 67.7994 62.2759 61.7676 55.6238 58.7671Z" fill="#5E9CC4" stroke="black"/>
<path d="M28.7486 39.2404C28.7486 39.2404 17.0708 42.0141 24.6132 43.0213C27.7978 43.4477 34.1463 43.3513 40.0598 42.8558C44.8926 42.4481 49.7454 41.5813 49.7454 41.5813C49.7454 41.5813 48.0412 42.3111 46.8084 43.153C34.9497 46.2718 12.041 44.8209 18.6361 41.6307C24.2136 38.9346 28.7486 39.2404 28.7486 39.2404Z" fill="#5E9CC4" stroke="black"/>
<path d="M49.6972 50.9499C61.7521 44.6857 56.1784 38.6659 52.288 39.477C51.3345 39.6754 50.9093 39.8474 50.9093 39.8474C50.9093 39.8474 51.2633 39.2929 51.9394 39.0528C59.6358 36.347 65.5548 47.0332 49.4549 51.2656C49.4549 51.2658 49.6414 51.099 49.6972 50.9499Z" fill="#5E9CC4" stroke="black"/>
<path d="M42.4293 3.87354C42.4293 3.87354 49.1054 10.552 36.0972 20.8215C25.6659 29.0594 33.7186 33.7564 36.0929 39.123C30.004 33.6293 25.5355 28.7932 28.5333 24.2922C32.9334 17.6851 45.1229 14.4818 42.4293 3.87354Z" fill="#E76F00" stroke="black"/>
<path d="M29.9332 67.9244C41.5043 68.6651 59.2731 67.5135 59.694 62.0383C59.694 62.0383 58.885 64.1139 50.131 65.7623C40.2548 67.6209 28.0739 67.4039 20.8492 66.2127C20.8494 66.2125 22.3282 67.4368 29.9332 67.9244Z" fill="#5E9CC4" stroke="black"/>
</svg>
