<svg width="72" height="72" viewBox="0 0 72 72" fill="none" xmlns="http://www.w3.org/2000/svg">
<path d="M60.9502 35.5185C60.9502 33.9634 60.3325 32.472 59.2329 31.3724C58.1332 30.2727 56.6418 29.655 55.0867 29.655C54.8775 29.655 54.6727 29.6662 54.4702 29.6865L62.5252 5.93323H28.2982L36.3397 29.6662C36.2227 29.6662 36.1035 29.655 35.9842 29.655C34.5858 29.6563 33.2338 30.1572 32.1721 31.0674C31.1104 31.9775 30.4088 33.2371 30.1938 34.6189C29.9788 36.0007 30.2645 37.4139 30.9995 38.6036C31.7345 39.7933 32.8703 40.6813 34.2022 41.1075C32.9552 43.2552 31.4021 45.2099 29.592 46.9102C27.2363 49.1619 24.4381 50.8989 21.375 52.011C19.6586 51.197 18.3163 49.7603 17.6206 47.9927C16.9248 46.2251 16.9277 44.259 17.6287 42.4935C17.802 42.0885 17.9775 41.679 18.1462 41.2695C19.4543 40.9617 20.617 40.2143 21.4401 39.1522C22.2633 38.0901 22.697 36.7777 22.6688 35.4342C22.6406 34.0908 22.1521 32.7977 21.2851 31.7712C20.418 30.7446 19.2249 30.0467 17.9051 29.7941C16.5853 29.5415 15.2188 29.7495 14.034 30.3834C12.8492 31.0173 11.9178 32.0386 11.3955 33.2767C10.8732 34.5147 10.7916 35.8946 11.1644 37.1855C11.5372 38.4765 12.3418 39.6004 13.4437 40.3695C11.5707 43.7633 10.1422 47.384 9.1935 51.1425C8.397 55.9462 9.1935 61.0425 13.3447 63.9247C23.0197 70.632 33.525 59.7667 44.5995 57.0375C48.6135 56.0475 53.019 56.2072 56.5537 54.1575C57.8315 53.431 58.9333 52.4317 59.7807 51.2308C60.6282 50.0298 61.2003 48.6568 61.4565 47.2095C61.6914 45.8311 61.6469 44.4195 61.3257 43.0586C61.0045 41.6977 60.4132 40.4152 59.5867 39.2872C60.4688 38.2331 60.9516 36.902 60.9502 35.5275V35.5185ZM41.85 35.55V35.5297C41.8506 34.5209 41.5908 33.529 41.0957 32.65C40.6006 31.771 39.887 31.0347 39.024 30.5122L45.423 17.55L51.8355 30.6315C51.031 31.1661 50.3714 31.8915 49.9156 32.7431C49.4598 33.5947 49.2219 34.5458 49.2232 35.5117C49.2232 35.5545 49.2232 35.5972 49.2232 35.64L41.85 35.55Z" fill="#99425B"/>
<path d="M62.3835 35.5185C62.3808 33.8185 61.7855 32.1726 60.7001 30.8641C59.6147 29.5557 58.107 28.6667 56.4367 28.35L64.5232 4.5H26.3002L34.4002 28.3973C32.9855 28.7123 31.6967 29.4417 30.6982 30.4924C29.6998 31.543 29.0369 32.8673 28.7943 34.2963C28.5517 35.7252 28.7403 37.1941 29.336 38.5154C29.9317 39.8367 30.9075 40.9506 32.139 41.715C31.1217 43.2268 29.9383 44.62 28.611 45.8685C26.5564 47.8336 24.1424 49.3843 21.501 50.436C20.2611 49.716 19.3213 48.5743 18.853 47.2192C18.3846 45.864 18.4189 44.3857 18.9495 43.0537L19.0395 42.8445L19.206 42.4508C20.7049 41.9308 21.9936 40.9365 22.8769 39.6186C23.7602 38.3007 24.19 36.7308 24.1013 35.1468C24.0126 33.5627 23.4101 32.0507 22.3852 30.8396C21.3603 29.6286 19.9686 28.7845 18.421 28.4351C16.8734 28.0857 15.2541 28.2501 13.8083 28.9034C12.3625 29.5567 11.1689 30.6633 10.4083 32.0556C9.64763 33.4479 9.36136 35.0502 9.59282 36.6197C9.82428 38.1893 10.5608 39.6407 11.691 40.7543C11.448 41.274 11.1915 41.8005 10.9282 42.3428C9.47006 45.0253 8.40899 47.9053 7.77825 50.8927C6.732 57.1927 8.4195 62.2395 12.528 65.0858C14.7367 66.6652 17.3862 67.5098 20.1015 67.5C24.8985 67.5 29.7517 65.0903 34.5015 62.7323C37.82 60.9277 41.3212 59.4818 44.946 58.419C46.2832 58.1123 47.6349 57.8727 48.996 57.7013C51.8785 57.471 54.6894 56.6856 57.2737 55.3883C58.7318 54.5557 59.989 53.4127 60.956 52.0401C61.923 50.6675 62.5763 49.099 62.8695 47.4458C63.3482 44.6375 62.7969 41.7507 61.317 39.3165C62.0172 38.1735 62.3849 36.8589 62.3835 35.5185ZM59.5192 35.5185C59.5192 36.3952 59.2593 37.2521 58.7722 37.9811C58.2852 38.71 57.5929 39.2781 56.783 39.6136C55.9731 39.9491 55.0818 40.0369 54.222 39.8658C53.3622 39.6948 52.5724 39.2726 51.9525 38.6528C51.3326 38.0329 50.9104 37.2431 50.7394 36.3832C50.5684 35.5234 50.6562 34.6322 50.9917 33.8223C51.3271 33.0123 51.8953 32.3201 52.6242 31.833C53.3531 31.346 54.2101 31.086 55.0867 31.086C56.2618 31.0878 57.3882 31.5554 58.219 32.3862C59.0499 33.2171 59.5175 34.3435 59.5192 35.5185ZM60.525 7.36425L53.3835 28.4243C53.0778 28.4987 52.7772 28.5927 52.4835 28.7055L45.4297 14.3055L38.3535 28.62C38.0453 28.5137 37.7303 28.4281 37.4108 28.3635L30.294 7.36425H60.525ZM35.9842 31.086C36.8609 31.086 37.7179 31.346 38.4468 31.833C39.1757 32.3201 39.7439 33.0123 40.0793 33.8223C40.4148 34.6322 40.5026 35.5234 40.3316 36.3832C40.1605 37.2431 39.7384 38.0329 39.1185 38.6528C38.4986 39.2726 37.7088 39.6948 36.849 39.8658C35.9892 40.0369 35.0979 39.9491 34.288 39.6136C33.4781 39.2781 32.7858 38.71 32.2988 37.9811C31.8117 37.2521 31.5517 36.3952 31.5517 35.5185C31.5529 34.3433 32.0203 33.2166 32.8513 32.3856C33.6823 31.5546 34.809 31.0872 35.9842 31.086ZM16.8075 31.1287C17.6842 31.1287 18.5411 31.3887 19.2701 31.8758C19.999 32.3628 20.5671 33.0551 20.9026 33.865C21.2381 34.6749 21.3259 35.5662 21.1548 36.426C20.9838 37.2858 20.5616 38.0756 19.9417 38.6955C19.3219 39.3154 18.5321 39.7375 17.6722 39.9086C16.8124 40.0796 15.9212 39.9918 15.1113 39.6563C14.3013 39.3209 13.6091 38.7527 13.122 38.0238C12.635 37.2949 12.375 36.4379 12.375 35.5613C12.3762 34.3864 12.8433 33.26 13.6738 32.4291C14.5043 31.5982 15.6327 31.1305 16.8075 31.1287ZM60.0457 46.9552C59.8236 48.1956 59.3314 49.3719 58.6039 50.4008C57.8763 51.4297 56.9314 52.2859 55.836 52.9087C53.5642 54.0138 51.1035 54.6781 48.5842 54.8662C47.1622 55.071 45.693 55.2825 44.2552 55.638C40.428 56.7467 36.7316 58.2652 33.2302 60.1672C26.1112 63.702 19.9552 66.7553 14.1682 62.739C9.9225 59.796 10.1182 54.351 10.6132 51.3675C11.1949 48.6511 12.1673 46.0334 13.5 43.596C13.707 43.1685 13.9095 42.7522 14.1075 42.3382C14.7122 42.579 15.3463 42.7379 15.993 42.8108C15.4194 44.8334 15.579 46.9937 16.4436 48.9102C17.3081 50.8266 18.822 52.3759 20.718 53.2845L21.2692 53.568L21.852 53.3587C25.1036 52.1862 28.0741 50.3468 30.573 47.9588C32.223 46.405 33.6727 44.6515 34.8885 42.7388C36.4435 42.9753 38.0334 42.7027 39.4208 41.9616C40.8082 41.2205 41.9187 40.0507 42.5868 38.6268C43.2549 37.2028 43.4447 35.6009 43.1278 34.0603C42.8109 32.5196 42.0043 31.1227 40.8285 30.078L45.414 20.8057L50.0467 30.2557C48.7286 31.5261 47.9367 33.2458 47.8283 35.0732C47.7199 36.9007 48.303 38.702 49.4617 40.1192C50.6205 41.5364 52.27 42.4658 54.0825 42.7227C55.895 42.9796 57.7378 42.5452 59.2447 41.5058C60.0806 43.1913 60.3602 45.0985 60.0435 46.953L60.0457 46.9552Z" fill="white"/>
</svg>
