<svg width="72" height="72" viewBox="0 0 72 72" fill="none" xmlns="http://www.w3.org/2000/svg">
<g opacity="0.72" clip-path="url(#clip0_1118_109)">
<path d="M3.60731 0.0140381V25.6778L14.9448 12.8975H15.4602L7.06008 22.3797L18.1399 38.6644H14.5325L4.9988 24.6472L3.60731 26.2447V38.6644H0V0.0140381H3.60731ZM21.517 25.9917C21.517 17.631 26.9117 12.9752 33.9348 12.9752C40.3982 12.9752 45.9454 16.2793 45.9454 25.3909C45.9454 33.7515 40.5508 38.4073 33.5277 38.4073C27.0643 38.4073 21.517 35.1033 21.517 25.9917ZM24.8633 25.9932C24.8633 34.8013 28.7301 38.0728 33.525 38.0728C38.5777 38.0728 42.5991 33.4423 42.5991 25.3893C42.5991 16.5813 38.7322 13.3097 33.9375 13.3097C28.8848 13.3097 24.8633 17.9402 24.8633 25.9932ZM70.4517 38.258C64.3587 38.258 64.6584 34.7035 64.6584 34.7035V34.0027C63.6595 35.8049 61.7617 38.4582 56.8174 38.4582C50.974 38.4582 49.9752 34.7536 49.6755 32.751C49.1761 29.3968 50.3747 26.8935 59.2646 26.2928C61.512 26.0925 64.059 26.1926 64.6584 26.2427V17.9322C64.6584 17.9322 65.2078 13.4266 59.4145 13.4266C56.3179 13.4266 52.4724 14.7282 51.2238 15.4291L51.0241 15.0786C51.6732 14.7783 54.7197 13.0259 60.0636 13.0259C67.3054 13.0259 68.1545 16.2301 68.1545 17.9323V34.7034C68.1545 37.9575 70.4517 37.8573 70.4517 37.8573H72V38.2578L70.4517 38.258ZM57.6913 38.1237C61.4355 38.1237 64.4902 34.7152 64.6381 32.6804V26.5249C64.0468 26.4742 61.7311 26.2707 59.2677 26.5758C54.0454 27.1863 53.0107 29.0177 53.3063 32.7313C53.5035 35.224 54.2424 38.1237 57.6913 38.1237Z" fill="white"/>
</g>
<defs>
<clipPath id="clip0_1118_109">
<rect width="72" height="72" fill="white"/>
</clipPath>
</defs>
</svg>
