<svg width="72" height="72" viewBox="0 0 72 72" fill="none" xmlns="http://www.w3.org/2000/svg">
<path d="M33.1351 9.36072L34.6955 12.2914C35.0463 12.8323 35.4264 13.311 35.874 13.7568C37.1864 15.0528 38.4097 16.436 39.5356 17.897C42.1794 21.3686 43.9627 25.2238 45.2362 29.3933C45.9999 31.9403 46.4147 34.5531 46.4457 37.1951C46.5736 45.0938 43.8658 51.8761 38.4064 57.5127C37.5184 58.4066 36.559 59.2267 35.5378 59.9647C34.997 59.9647 34.7412 59.55 34.5183 59.1681C34.1123 58.46 33.8422 57.6823 33.7216 56.8751C33.5298 55.9195 33.4037 54.9639 33.4658 53.9773V53.5314C33.422 53.4364 32.9451 9.58545 33.1351 9.36072Z" fill="#599636"/>
<path d="M33.1351 9.26391C33.0712 9.13601 33.0072 9.23285 32.9433 9.29497C32.9743 9.93446 32.7514 10.5045 32.4024 11.049C32.0188 11.5898 31.5108 12.0046 31.001 12.4504C28.169 14.9024 25.9399 17.8642 24.1548 21.1768C21.7795 25.6349 20.5554 30.4129 20.2082 35.4429C20.0493 37.2573 20.7819 43.6595 21.3538 45.5067C22.9142 50.4107 25.717 54.5199 29.3475 58.0865C30.2391 58.9452 31.1929 59.7419 32.1795 60.5074C32.4664 60.5074 32.4975 60.2516 32.5632 60.0616C32.689 59.655 32.7849 59.2397 32.8501 58.8192L33.4896 54.0431L33.1351 9.26391Z" fill="#6CAC48"/>
<path d="M34.6955 61.9052C34.7595 61.1744 35.1103 60.5678 35.4921 59.963C35.1084 59.804 34.8234 59.488 34.6005 59.1353C34.4083 58.8014 34.2492 58.4496 34.1255 58.0847C33.6796 56.7473 33.5846 55.344 33.4567 53.9773V53.1497C33.2978 53.2776 33.2649 54.3592 33.2649 54.52C33.1719 55.9645 32.9802 57.4009 32.6912 58.8192C32.5961 59.3929 32.5322 59.9648 32.1796 60.4746C32.1796 60.5385 32.1796 60.6025 32.2106 60.6975C32.7843 62.3858 32.9415 64.1051 33.0383 65.8573V66.4968C33.0383 67.2605 33.0073 67.0997 33.6413 67.3555C33.8971 67.4506 34.1821 67.4834 34.4379 67.6735C34.6297 67.6735 34.6608 67.5145 34.6608 67.3866L34.5658 66.336V63.4053C34.5347 62.8937 34.6297 62.3858 34.6937 61.9071L34.6955 61.9052Z" fill="#C2BFBF"/>
</svg>
