<svg width="72" height="72" viewBox="0 0 72 72" fill="none" xmlns="http://www.w3.org/2000/svg">
<path fill-rule="evenodd" clip-rule="evenodd" d="M19.7662 15.4462C19.1702 15.4443 18.5765 15.5199 18 15.6712V15.75H18.0855C18.4984 16.3732 18.9588 16.9637 19.4625 17.5162C19.809 18.2047 20.1105 18.891 20.4547 19.5795C20.4975 19.5367 20.5402 19.4917 20.5402 19.4917C20.8599 19.238 21.11 18.9074 21.2674 18.5309C21.4248 18.1544 21.4843 17.7442 21.4403 17.3385C21.2518 17.0479 21.0791 16.7475 20.9227 16.4385C20.664 16.0087 20.1037 15.7927 19.7595 15.4485" fill="#348DD1"/>
<path fill-rule="evenodd" clip-rule="evenodd" d="M62.505 52.9942C59.6668 52.7949 56.8188 53.2061 54.153 54.2002C53.5072 54.459 52.4767 54.459 52.3867 55.2757C52.7332 55.62 52.7737 56.1757 53.0775 56.655C53.6668 57.6528 54.4242 58.5411 55.3162 59.2807C56.2162 59.9692 57.1162 60.6555 58.0725 61.2585C59.7487 62.2957 61.6455 62.8965 63.279 63.9292C64.2285 64.5322 65.1735 65.3062 66.123 65.9542C66.5955 66.2985 66.8947 66.8542 67.4977 67.0792V66.9487C67.3206 66.4706 67.1015 66.009 66.843 65.5695C66.4132 65.142 65.9812 64.7527 65.5492 64.323C64.2871 62.6541 62.7772 61.1882 61.0717 59.976C59.6925 59.0265 56.6775 57.726 56.1217 56.151L56.034 56.0632C57.0432 55.9202 58.0378 55.6883 59.0062 55.3702C60.4687 54.9832 61.803 55.071 63.3082 54.6952C63.999 54.522 65.2477 54.0922 65.2477 54.0922V53.4172C64.4782 52.6522 63.927 51.6285 63.117 50.9062C60.9133 48.9826 58.5649 47.2314 56.0925 45.6682C54.7717 44.8155 53.0685 44.2665 51.6622 43.5397C51.1537 43.2832 50.3122 43.1572 50.004 42.7297C49.3046 41.7037 48.7191 40.6044 48.258 39.4515C47.025 37.1115 45.8302 34.5172 44.7682 32.0422C44.1396 30.3836 43.4147 28.7631 42.597 27.189C38.6512 20.4805 32.9559 14.9711 26.1202 11.25C24.3955 10.4151 22.5617 9.82737 20.673 9.50399C19.6065 9.45899 18.5445 9.37574 17.4802 9.33524C16.7932 8.88516 16.1398 8.38585 15.525 7.84124C13.0905 6.29999 6.8355 2.98799 5.0445 7.37324C3.897 10.143 6.75 12.8655 7.72875 14.2717C8.55403 15.2633 9.28119 16.3325 9.9 17.4645C10.1992 18.189 10.2847 18.9562 10.575 19.7145C11.1996 21.661 11.9412 23.568 12.7957 25.425C13.2528 26.3428 13.7793 27.2244 14.3707 28.062C14.715 28.5322 15.309 28.737 15.4372 29.5132C14.9654 30.5275 14.6353 31.6018 14.4562 32.706C13.7125 35.0548 13.4388 37.527 13.6507 39.9816C13.8627 42.4362 14.5561 44.825 15.6915 47.0115C16.3665 48.0757 17.991 50.418 20.1622 49.5225C22.077 48.7575 21.6517 46.3297 22.2052 44.2035C22.3312 43.6882 22.248 43.3507 22.5022 43.011V43.425C22.5022 43.425 23.589 45.8122 24.129 47.025C25.5975 49.2503 27.4218 51.219 29.529 52.8525C30.3625 53.5802 31.034 54.4747 31.5 55.4782V56.25H32.4607C32.4407 55.902 32.3443 55.5627 32.1782 55.2563C32.0122 54.9498 31.7806 54.6838 31.5 54.477C30.7121 53.6661 29.9906 52.7933 29.3422 51.867C27.5811 49.3587 26.0279 46.7106 24.6982 43.9492C24.0232 42.5992 23.454 41.1187 22.914 39.771C22.6665 39.2512 22.6665 38.466 22.2502 38.196C21.4816 39.1054 20.8147 40.096 20.2612 41.1502C19.5894 43.2811 19.1983 45.4905 19.098 47.7225C18.9337 47.7675 19.0147 47.7225 18.9337 47.808C17.6085 47.4592 17.1517 46.026 16.6522 44.811C15.3619 41.0637 15.2317 37.0144 16.2787 33.192C16.5667 32.2807 17.8155 29.4097 17.316 28.539C17.0662 27.7087 16.236 27.234 15.7815 26.5792C15.2013 25.6984 14.702 24.7669 14.2897 23.796C13.302 21.375 12.8025 18.675 11.727 16.236C11.1316 15.063 10.4384 13.9423 9.65475 12.8857C8.78786 11.8303 8.02317 10.695 7.371 9.49499C7.164 9.01574 6.87375 8.23274 7.2045 7.71074C7.22682 7.56574 7.29577 7.43196 7.40092 7.32966C7.50607 7.22735 7.64169 7.16209 7.78725 7.14374C8.32275 6.66674 9.8595 7.27424 10.3972 7.53524C11.8425 8.10422 13.2192 8.83406 14.5012 9.71099C15.0817 10.1475 16.4497 11.2522 16.4497 11.2522H16.8547C18.2317 11.5515 19.7797 11.3355 21.0757 11.7247C23.2579 12.4521 25.3403 13.4499 27.2745 14.6947C32.9753 18.3288 37.6097 23.4105 40.7047 29.421C41.2222 30.4087 41.4405 31.3155 41.913 32.346C42.813 34.461 43.938 36.621 44.838 38.6775C45.632 40.7121 46.6588 42.648 47.898 44.4465C48.5415 45.3465 51.1267 45.8235 52.29 46.296C53.3002 46.6455 54.2915 47.0473 55.26 47.4997C56.7247 48.3997 58.185 49.437 59.5642 50.4247C60.2505 50.9422 62.4037 52.0177 62.5342 52.8795" fill="#348DD1"/>
</svg>
