<svg width="72" height="72" viewBox="0 0 72 72" fill="none" xmlns="http://www.w3.org/2000/svg">
<path d="M67.2165 31.419C66.352 25.5918 63.8774 20.1217 60.0714 15.6252C56.2654 11.1288 51.2793 7.78448 45.675 5.96924C43.5407 5.29149 41.3432 4.83164 39.1162 4.59674C38.5245 4.53599 34.4542 4.46849 33.9412 4.51799C33.8062 4.51799 33.3742 4.57199 32.9872 4.60349C28.5009 5.03773 24.1594 6.42743 20.2548 8.67915C16.3502 10.9309 12.9729 13.9924 10.35 17.658C7.41592 21.7305 5.50862 26.4513 4.79024 31.419C4.54823 32.9333 4.45104 34.4672 4.49999 36C4.44847 37.5348 4.54339 39.071 4.78349 40.5877C5.64645 46.4161 8.12047 51.8874 11.9266 56.3849C15.7327 60.8823 20.7196 64.2271 26.325 66.042C28.4891 66.7277 30.7177 67.1898 32.976 67.4212C34.9861 67.527 37.0004 67.527 39.0105 67.4212C42.9684 67.0342 46.8187 65.9085 50.3617 64.1025C50.9017 63.8257 51.0075 63.7515 50.9332 63.6907C50.859 63.63 48.5752 60.5565 45.8032 56.8125L40.7655 50.0085L34.4655 40.6665C30.9915 35.532 28.134 31.3335 28.1092 31.3335C28.0845 31.3335 28.0597 35.4757 28.0485 40.545C28.2091 43.6946 28.164 46.8513 27.9135 49.995C27.8053 50.2404 27.613 50.4391 27.3712 50.5552C27.1732 50.6542 27 50.6722 26.0707 50.6722H25.0065L24.723 50.4945C24.5473 50.3841 24.4044 50.2287 24.309 50.0445L24.1807 49.7677L24.192 37.422L24.2122 25.0695L24.4012 24.8287C24.5287 24.6788 24.6809 24.5517 24.8512 24.453C25.1032 24.3315 25.2022 24.318 26.2665 24.318C27.5242 24.318 27.7335 24.3675 28.0665 24.7252C28.1587 24.8242 31.5765 29.97 35.6647 36.171C39.753 42.372 45.3397 50.8387 48.0937 54.9945L53.0775 62.55L53.3295 62.3835C55.7313 60.7865 57.9084 58.875 59.8027 56.7C63.7716 52.158 66.3458 46.5675 67.2165 40.599C67.4573 39.0785 67.5522 37.5385 67.5 36C67.5512 34.4675 67.4562 32.9335 67.2165 31.419ZM47.5042 35.5927L47.4862 46.665L45.5332 43.6725L43.5757 40.68V32.625C43.5757 27.423 43.6005 24.498 43.6365 24.3562C43.6804 24.1924 43.7571 24.0391 43.8619 23.9057C43.9667 23.7723 44.0974 23.6615 44.2462 23.58C44.4982 23.4495 44.5905 23.4382 45.558 23.4382C46.458 23.4382 46.629 23.4495 46.8315 23.562C46.9787 23.6352 47.1098 23.7373 47.2168 23.8622C47.3239 23.987 47.4048 24.1321 47.4547 24.2887C47.5042 24.4552 47.5155 27.8775 47.5042 35.5927Z" fill="#D2D2D2"/>
</svg>
