<svg width="72" height="72" viewBox="0 0 72 72" fill="none" xmlns="http://www.w3.org/2000/svg">
<path d="M36 67.5C35.1501 67.5003 34.3151 67.2768 33.579 66.852L25.875 62.2912C24.7253 61.6477 25.2855 61.4205 25.6658 61.2877C26.8886 60.91 28.0594 60.3809 29.151 59.7127C29.2424 59.6705 29.343 59.6522 29.4434 59.6597C29.5438 59.6672 29.6407 59.7001 29.7248 59.7555L35.6445 63.2722C35.7547 63.3305 35.8775 63.361 36.0023 63.361C36.127 63.361 36.2498 63.3305 36.36 63.2722L59.445 49.9477C59.553 49.883 59.6424 49.7913 59.7043 49.6817C59.7662 49.572 59.7986 49.4482 59.7983 49.3222V22.6687C59.7983 22.5408 59.7655 22.415 59.7028 22.3035C59.6401 22.192 59.5498 22.0985 59.4405 22.032L36.3555 8.71873C36.2466 8.65742 36.1238 8.62521 35.9989 8.62521C35.8739 8.62521 35.7511 8.65742 35.6423 8.71873L12.5708 22.0365C12.4607 22.1016 12.3693 22.194 12.3055 22.3047C12.2416 22.4155 12.2074 22.5409 12.2063 22.6687V49.311C12.2066 49.4366 12.2403 49.5599 12.3039 49.6683C12.3676 49.7766 12.4589 49.8661 12.5685 49.9275L18.9 53.5815C22.3313 55.296 24.4328 53.2755 24.4328 51.246V24.9412C24.4328 24.7622 24.5039 24.5905 24.6305 24.4639C24.757 24.3373 24.9287 24.2662 25.1078 24.2662H28.0328C28.2118 24.2662 28.3835 24.3373 28.51 24.4639C28.6366 24.5905 28.7078 24.7622 28.7078 24.9412V51.2482C28.7078 55.827 26.2148 58.4482 21.8723 58.4482C19.9989 58.4809 18.1548 57.9799 16.5555 57.0037L10.4873 53.523C9.75058 53.094 9.13932 52.4792 8.7145 51.7402C8.28968 51.0011 8.06616 50.1635 8.06625 49.311V22.6687C8.06406 21.8149 8.28664 20.9756 8.71161 20.235C9.13658 19.4945 9.74897 18.8789 10.4873 18.45L33.5745 5.12098C34.3182 4.71411 35.1523 4.50085 36 4.50085C36.8477 4.50085 37.6818 4.71411 38.4255 5.12098L61.5105 18.45C62.2471 18.8781 62.8585 19.492 63.2837 20.2303C63.7089 20.9686 63.9331 21.8055 63.9338 22.6575V49.311C63.9325 50.1635 63.7082 51.0008 63.283 51.7397C62.8579 52.4786 62.2468 53.0934 61.5105 53.523L38.4255 66.852C37.688 67.2775 36.8514 67.501 36 67.5Z" fill="#83CD29"/>
<path d="M31.6215 40.3943C31.6215 40.2152 31.6926 40.0436 31.8192 39.917C31.9458 39.7904 32.1175 39.7193 32.2965 39.7193H35.2823C35.4418 39.7198 35.596 39.7768 35.7175 39.8802C35.839 39.9836 35.9199 40.1266 35.946 40.284C36.396 43.3238 37.746 44.856 43.8503 44.856C48.7125 44.856 50.7848 43.7558 50.7848 41.175C50.7848 39.6878 50.1975 38.583 42.6398 37.8428C36.3218 37.2173 32.4158 35.8178 32.4158 30.7688C32.4158 26.1113 36.342 23.3325 42.9233 23.3325C50.319 23.3325 53.9798 25.8998 54.4433 31.4078C54.4503 31.4997 54.4385 31.5922 54.4085 31.6794C54.3784 31.7666 54.3309 31.8467 54.2687 31.9148C54.2065 31.9829 54.131 32.0375 54.0468 32.0753C53.9627 32.1131 53.8717 32.1333 53.7795 32.1345H50.7735C50.6227 32.1324 50.477 32.0799 50.3595 31.9852C50.2421 31.8906 50.1597 31.7594 50.1255 31.6125C49.4078 28.4153 47.6505 27.3938 42.9255 27.3938C37.6155 27.3938 36.999 29.2433 36.999 30.6293C36.999 32.3078 37.728 32.7983 44.8965 33.7455C51.9908 34.6838 55.3613 36.0113 55.3613 40.9973C55.3613 46.0283 51.1673 48.9083 43.8525 48.9083C33.7388 48.9218 31.6215 44.2845 31.6215 40.3943Z" fill="#83CD29"/>
</svg>
