<svg width="72" height="72" viewBox="0 0 72 72" fill="none" xmlns="http://www.w3.org/2000/svg">
<g clip-path="url(#clip0_1118_128)">
<path d="M71.721 43.11C71.2893 41.8422 70.1584 40.9592 68.6959 40.7473C68.0062 40.6475 67.2165 40.6901 66.2819 40.8769C64.6529 41.2028 63.4444 41.3268 62.5624 41.3508C65.8915 35.9009 68.5985 29.6861 70.157 23.8359C72.677 14.3762 71.3303 10.0667 69.7567 8.11743C65.5923 2.95795 59.5164 0.186228 52.1865 0.101419C48.2763 0.0550596 44.8436 0.803621 43.0529 1.34193C41.3856 1.05669 39.593 0.89743 37.712 0.867978C34.1859 0.813438 31.0705 1.55873 28.4085 3.09048C26.9347 2.60726 24.5694 1.92605 21.8379 1.49137C15.4136 0.468745 10.2358 1.26557 6.44849 3.85977C1.86242 7.00073 -0.263545 12.458 0.129642 20.08C0.254517 22.4999 1.65064 29.8628 3.84889 36.8456C5.11227 40.8592 6.45946 44.1921 7.85305 46.7528C9.82939 50.3838 11.9441 52.522 14.3181 53.2899C15.6487 53.7197 18.0664 54.0207 20.6091 51.9673C20.9315 52.3458 21.3615 52.7219 21.9321 53.0712C22.6569 53.5143 23.5431 53.8765 24.4282 54.0911C27.6179 54.8642 30.6056 54.6709 33.1546 53.5872C33.1703 54.0267 33.1824 54.4467 33.1925 54.8094C33.2094 55.3976 33.2263 55.9744 33.2485 56.5138C33.3996 60.1609 33.6555 62.9967 34.4137 64.9808C34.4554 65.0899 34.5113 65.2563 34.5704 65.4327C34.9487 66.5557 35.5812 68.4357 37.1905 69.908C38.8569 71.4332 40.8726 71.9009 42.7188 71.9009C43.6446 71.9009 44.528 71.7831 45.3029 71.6222C48.0648 71.0481 51.2015 70.1739 53.4707 67.0411C55.616 64.0796 56.6589 59.619 56.8476 52.5907C56.8721 52.3919 56.8946 52.2021 56.9163 52.0213L56.9613 51.6499L57.4667 51.693L57.5969 51.7014C60.41 51.8258 63.8496 51.2474 65.9621 50.2959C67.6313 49.5449 72.9804 46.8067 71.721 43.11Z" fill="black"/>
<path d="M66.9111 43.8289C58.5467 45.5019 57.9715 42.7561 57.9715 42.7561C66.8028 30.0502 70.4948 13.9219 67.309 9.97458C58.6173 -0.79298 43.5718 4.29942 43.3207 4.43141L43.24 4.44559C41.5873 4.11289 39.7381 3.91491 37.6594 3.88192C33.8749 3.82192 31.0039 4.844 28.8253 6.44584C28.8253 6.44584 1.98564 -4.27509 3.23411 19.9292C3.49961 25.0783 10.8459 58.8907 19.6079 48.6778C22.8105 44.9432 25.9051 41.7856 25.9051 41.7856C27.4419 42.7755 29.2818 43.2805 31.2106 43.0992L31.3605 42.9759C31.3138 43.4395 31.3352 43.893 31.4204 44.43C29.1631 46.8753 29.8266 47.3045 25.3142 48.2052C20.7481 49.1177 23.4304 50.7419 25.1817 51.1667C27.3049 51.6813 32.2166 52.4105 35.5354 47.9058L35.4032 48.4198C36.2875 49.1068 36.9085 52.8875 36.8044 56.315C36.7003 59.7423 36.6309 62.0955 37.3275 63.9335C38.0247 65.7715 38.7191 69.907 44.6513 68.6746C49.6077 67.6446 52.1764 64.9757 52.5339 60.5236C52.7873 57.3587 53.3613 57.8266 53.3973 54.9968L53.8577 53.6573C54.3884 49.3669 53.9421 47.9827 56.9956 48.6265L57.7381 48.6898C59.9853 48.7888 62.9272 48.3391 64.6538 47.5611C68.3713 45.8884 70.5763 43.0951 66.9105 43.8289H66.9111Z" fill="#336791"/>
<path d="M30.3964 22.2319C29.6426 22.1301 28.96 22.2242 28.6147 22.4778C28.4206 22.6205 28.3604 22.7857 28.3441 22.8994C28.3008 23.2008 28.5185 23.534 28.6524 23.7058C29.0309 24.1923 29.5839 24.5266 30.1312 24.6003C30.2105 24.6112 30.2895 24.6161 30.368 24.6161C31.2806 24.6161 32.1106 23.927 32.1837 23.4184C32.2751 22.7813 31.3214 22.3565 30.3964 22.2319ZM55.3669 22.252C55.2949 21.7527 54.3786 21.6104 53.509 21.7276C52.6405 21.8449 51.7984 22.225 51.8687 22.7254C51.925 23.1146 52.6497 23.7789 53.5075 23.7789C53.5801 23.7789 53.6532 23.7742 53.7269 23.7642C54.2995 23.6873 54.7197 23.3347 54.9194 23.1315C55.2232 22.8217 55.3992 22.4765 55.3669 22.252Z" fill="white"/>
<path d="M69.6943 43.6388C69.3754 42.7037 68.3488 42.403 66.6433 42.7444C61.5794 43.7577 59.7659 43.0558 59.1705 42.6307C63.1066 36.8167 66.3446 29.7887 68.0915 23.2316C68.9189 20.1255 69.376 17.2409 69.4134 14.8897C69.4547 12.3092 69.0013 10.4128 68.0665 9.25437C64.2971 4.58438 58.765 2.07936 52.0684 2.01064C47.4646 1.96046 43.5749 3.1028 42.8209 3.42404C41.233 3.04117 39.5019 2.8061 37.6172 2.7761C34.1612 2.72184 31.1738 3.52412 28.7005 5.1595C27.6261 4.77172 24.8496 3.84754 21.454 3.31714C15.5838 2.40087 10.919 3.09516 7.59011 5.38175C3.61801 8.11039 1.78426 12.9879 2.13948 19.8785C2.25901 22.1967 3.62139 29.3284 5.77126 36.1581C8.6012 45.1474 11.6775 50.2363 14.9141 51.2832C15.293 51.4056 15.7298 51.4912 16.2115 51.4912C17.3922 51.4912 18.8398 50.9753 20.3459 49.2196C22.1829 47.0829 24.0832 44.9981 26.0443 42.9677C27.3167 43.6298 28.7145 43.9996 30.1441 44.0367C30.1469 44.073 30.1506 44.1092 30.154 44.1452C29.9079 44.4298 29.6669 44.7184 29.4311 45.0111C28.4406 46.2303 28.2344 46.4842 25.0459 47.1207C24.1389 47.3023 21.73 47.7836 21.6945 49.4209C21.6563 51.2098 24.5422 51.9611 24.871 52.0407C26.0168 52.3189 27.1207 52.456 28.1734 52.456C30.7336 52.456 32.9867 51.6401 34.7873 50.0615C34.7319 56.4388 35.0061 62.7229 35.7958 64.6376C36.4427 66.205 38.0228 70.0356 43.0138 70.0354C43.7462 70.0354 44.5523 69.9527 45.439 69.7684C50.6481 68.6858 52.9102 66.4535 53.7851 61.532C54.2534 58.9019 55.057 52.6213 55.435 49.2524C56.2326 49.4937 57.2594 49.6041 58.3695 49.6039C60.6848 49.6039 63.3564 49.1269 65.0318 48.3729C66.9139 47.5254 70.3103 45.4457 69.6943 43.6388ZM57.2895 20.8738C57.2724 21.8684 57.1312 22.7713 56.9815 23.7137C56.8204 24.7274 56.6539 25.7753 56.612 27.0475C56.5706 28.2856 56.7301 29.5727 56.8842 30.8176C57.1959 33.3319 57.5156 35.9203 56.2779 38.4744C56.0723 38.1212 55.8891 37.7561 55.7294 37.3812C55.5756 37.0196 55.2415 36.4387 54.7788 35.6348C52.9791 32.5053 48.7645 25.1768 50.922 22.1863C51.5647 21.2963 53.1956 20.3811 57.2895 20.8738ZM52.3271 4.02453C58.3273 4.15297 63.0737 6.32939 66.4341 10.493C69.0115 13.6866 66.1734 28.2179 57.9572 40.7542C57.8746 40.6523 57.7915 40.5508 57.708 40.4496L57.604 40.3236C59.7271 36.9239 59.312 33.5601 58.9424 30.5779C58.7906 29.354 58.6471 28.198 58.6837 27.1121C58.7214 25.9613 58.8783 24.9742 59.0302 24.0197C59.2166 22.8435 59.4065 21.6265 59.3542 20.1918C59.3933 20.0413 59.409 19.8635 59.3885 19.6524C59.2549 18.2766 57.6349 14.1591 54.333 10.4324C52.5268 8.394 49.8929 6.11286 46.2966 4.57429C47.8435 4.26341 49.9587 3.97353 52.3271 4.02453ZM18.7521 47.9347C17.0927 49.8692 15.9469 49.4983 15.57 49.3767C13.1147 48.5826 10.2656 43.5508 7.7538 35.5715C5.5803 28.6673 4.31017 21.7247 4.20948 19.7779C3.89223 13.6208 5.43151 9.3299 8.78486 7.02395C14.2422 3.2716 23.2147 5.51756 26.82 6.65663C26.7683 6.70626 26.7143 6.75262 26.6631 6.80307C20.7467 12.5963 20.887 22.4942 20.9017 23.0993C20.9011 23.3328 20.9214 23.6633 20.9489 24.1179C21.0507 25.7827 21.2403 28.8811 20.734 32.39C20.2638 35.6506 21.3005 38.842 23.5778 41.1461C23.8115 41.3821 24.0571 41.6067 24.3138 41.8191C23.3002 42.8717 21.0971 45.1995 18.7521 47.9347ZM25.0743 39.7556C23.2389 37.8985 22.4052 35.3155 22.7869 32.6681C23.3213 28.9616 23.1241 25.7334 23.0181 23.999C23.0032 23.7563 22.99 23.5436 22.9824 23.3759C23.8466 22.6328 27.8519 20.5521 30.7083 21.1866C32.0116 21.476 32.8059 22.3366 33.136 23.8168C34.8449 31.4805 33.3622 34.6746 32.1708 37.2416C31.9253 37.7703 31.6932 38.2702 31.4952 38.7872L31.3417 39.187C30.953 40.1976 30.5913 41.1374 30.3671 42.0296C28.4158 42.0242 26.5177 41.2159 25.0743 39.7553V39.7556ZM25.3738 50.0909C24.804 49.9529 24.2916 49.7132 23.9909 49.5144C24.2421 49.3999 24.689 49.2439 25.4641 49.089C29.2151 48.3405 29.7945 47.812 31.0596 46.2546C31.3495 45.8973 31.6783 45.4926 32.1337 44.9996L32.1342 44.9991C32.8123 44.2628 33.1225 44.3877 33.685 44.614C34.141 44.7967 34.585 45.3508 34.765 45.9606C34.8503 46.2486 34.9459 46.7951 34.6329 47.2205C31.9902 50.8081 28.1394 50.762 25.3738 50.0909ZM45.0048 67.8033C40.4159 68.7567 38.7911 66.4865 37.7204 63.8912C37.0294 62.2157 36.6896 54.6603 36.9307 46.3165C36.9338 46.2055 36.9175 46.0983 36.886 45.9974C36.8578 45.7982 36.8149 45.6011 36.7577 45.4078C36.3994 44.1938 35.5261 43.1782 34.4785 42.7572C34.0622 42.59 33.2983 42.2832 32.3803 42.5109C32.5761 41.7288 32.9155 40.8456 33.2837 39.8892L33.4381 39.487C33.6119 39.0335 33.8302 38.5636 34.0608 38.0662C35.3076 35.3807 37.015 31.7022 35.1619 23.3922C34.4678 20.2796 32.1497 18.7596 28.6358 19.1127C26.5292 19.3241 24.6018 20.1482 23.6405 20.6208C23.4338 20.7222 23.2448 20.8204 23.0681 20.9158C23.3365 17.7798 24.3501 11.9189 28.1419 8.21074C30.5294 5.87643 33.709 4.72346 37.5829 4.78563C45.216 4.90671 50.1109 8.70487 52.8733 11.8701C55.2538 14.5974 56.5428 17.3448 57.0572 18.8267C53.1886 18.4452 50.5575 19.1856 49.2238 21.0345C46.3222 25.0562 50.8112 32.862 52.9687 36.6135C53.3644 37.301 53.7058 37.8952 53.8133 38.1477C54.5158 39.7987 55.4254 40.9009 56.0894 41.7054C56.293 41.9519 56.4905 42.1911 56.6407 42.4C55.469 42.7275 53.3644 43.4842 53.5562 47.2668C53.4015 49.1648 52.3015 58.051 51.7427 61.1906C51.005 65.3384 49.4308 66.8832 45.0048 67.8036V67.8033ZM64.159 46.5502C62.9609 47.0893 60.9559 47.4937 59.0513 47.5807C56.9475 47.6762 55.8765 47.3522 55.6245 47.1528C55.5064 44.7956 56.4112 44.5494 57.3688 44.2887C57.5193 44.2478 57.6661 44.2077 57.8079 44.1597C57.8959 44.2292 57.9924 44.2982 58.0981 44.3658C59.789 45.4479 62.8048 45.5646 67.0627 44.7125L67.1094 44.7035C66.535 45.224 65.5524 45.9227 64.159 46.5502Z" fill="white"/>
</g>
<defs>
<clipPath id="clip0_1118_128">
<rect width="72" height="72" fill="white"/>
</clipPath>
</defs>
</svg>
