<svg width="72" height="72" viewBox="0 0 72 72" fill="none" xmlns="http://www.w3.org/2000/svg">
<path d="M35.7413 4.725C19.7663 4.725 20.7765 11.6325 20.7765 11.6325V18.81H35.9685V21.06H14.7262C14.7262 21.06 4.5 19.8 4.5 36.0112C4.5 52.2225 13.5293 51.5632 13.5293 51.5632H18.7425V44.001C18.7425 44.001 18.45 34.9717 27.5175 34.9717H42.732C42.732 34.9717 51.219 35.1067 51.219 26.7547V13.05C51.219 13.05 52.506 4.698 35.8245 4.698L35.7413 4.725ZM27.3442 9.53325C27.8843 9.51962 28.4163 9.66646 28.873 9.9552C29.3296 10.2439 29.6904 10.6616 29.9096 11.1554C30.1289 11.6492 30.1968 12.1969 30.1047 12.7292C30.0127 13.2616 29.7648 13.7547 29.3925 14.1462C29.0202 14.5377 28.5402 14.81 28.0131 14.9287C27.486 15.0473 26.9356 15.007 26.4315 14.8129C25.9273 14.6187 25.492 14.2794 25.1807 13.8378C24.8694 13.3963 24.696 12.8723 24.6825 12.3322V12.2872C24.6825 11.9285 24.7532 11.5733 24.8904 11.2419C25.0277 10.9105 25.2289 10.6094 25.4825 10.3558C25.7362 10.1021 26.0373 9.90094 26.3687 9.76367C26.7001 9.6264 27.0553 9.55575 27.414 9.55575L27.3442 9.53325Z" fill="url(#paint0_linear_1118_32)"/>
<path d="M36.1912 67.2975C52.1662 67.2975 51.156 60.3675 51.156 60.3675V53.2125H35.9662V50.9625H57.2738C57.2738 50.9625 67.5 52.1055 67.5 35.9887C67.5 19.872 58.4707 20.4367 58.4707 20.4367H53.19V27.9C53.19 27.9 53.4825 36.9292 44.415 36.9292H29.1938C29.1938 36.9292 20.7 36.801 20.7 45.153V58.95C20.7 58.95 19.413 67.302 36.0945 67.302H36.1845L36.1912 67.2975ZM44.5882 62.4667C44.0482 62.4804 43.5162 62.3335 43.0595 62.0448C42.6029 61.7561 42.2421 61.3384 42.0229 60.8446C41.8036 60.3508 41.7357 59.8031 41.8278 59.2708C41.9198 58.7384 42.1677 58.2453 42.54 57.8538C42.9123 57.4623 43.3923 57.19 43.9194 57.0713C44.4465 56.9527 44.9969 56.993 45.501 57.1871C46.0052 57.3813 46.4405 57.7206 46.7518 58.1621C47.0631 58.6037 47.2365 59.1277 47.25 59.6677V59.7352C47.25 60.4597 46.9622 61.1544 46.45 61.6667C45.9377 62.179 45.2429 62.4667 44.5185 62.4667H44.5882Z" fill="url(#paint1_linear_1118_32)"/>
<defs>
<linearGradient id="paint0_linear_1118_32" x1="10.7261" y1="10.8515" x2="40.6211" y2="40.6788" gradientUnits="userSpaceOnUse">
<stop stop-color="#387EB8"/>
<stop offset="1" stop-color="#366994"/>
</linearGradient>
<linearGradient id="paint1_linear_1118_32" x1="28.4119" y1="30.2818" x2="62.5673" y2="60.1001" gradientUnits="userSpaceOnUse">
<stop stop-color="#FFE052"/>
<stop offset="1" stop-color="#FFC331"/>
</linearGradient>
</defs>
</svg>
