<svg width="72" height="72" viewBox="0 0 72 72" fill="none" xmlns="http://www.w3.org/2000/svg">
<path d="M36 42.4125C39.5415 42.4125 42.4125 39.5416 42.4125 36C42.4125 32.4585 39.5415 29.5875 36 29.5875C32.4585 29.5875 29.5875 32.4585 29.5875 36C29.5875 39.5416 32.4585 42.4125 36 42.4125Z" fill="#61DAFB"/>
<path d="M60.3563 25.425C59.1187 24.975 57.825 24.525 56.475 24.1313C56.8125 22.7813 57.0938 21.4313 57.3187 20.1375C58.5 12.7125 57.2062 7.48127 53.6063 5.45627C52.5375 4.83752 51.3562 4.55627 50.0062 4.55627C46.0687 4.55627 41.0625 7.48127 36 12.375C30.9375 7.48127 25.9312 4.55627 21.9937 4.55627C20.6437 4.55627 19.4625 4.83752 18.3937 5.45627C14.7937 7.53752 13.5 12.7688 14.6812 20.1375C14.9062 21.4313 15.1875 22.7813 15.525 24.1313C14.175 24.525 12.8812 24.9188 11.6437 25.425C4.6125 28.125 0.787498 31.8375 0.787498 36C0.787498 40.1625 4.66875 43.875 11.6437 46.575C12.8812 47.025 14.175 47.475 15.525 47.8688C15.1875 49.2188 14.9062 50.5688 14.6812 51.8625C13.5 59.2875 14.7937 64.5188 18.3937 66.5438C19.4625 67.1625 20.6437 67.4438 21.9937 67.4438C25.9875 67.4438 30.9937 64.5188 36 59.625C41.0625 64.5188 46.0687 67.4438 50.0062 67.4438C51.3562 67.4438 52.5375 67.1625 53.6063 66.5438C57.2062 64.4625 58.5 59.2313 57.3187 51.8625C57.0938 50.5688 56.8125 49.2188 56.475 47.8688C57.825 47.475 59.1187 47.0813 60.3563 46.575C67.3875 43.875 71.2125 40.1625 71.2125 36C71.2125 31.8375 67.3875 28.125 60.3563 25.425ZM52.0312 8.26877C54.3375 9.61877 55.125 13.7813 54.1688 19.6875C54 20.8688 53.7188 22.1063 53.3812 23.4C50.4562 22.725 47.3625 22.275 44.1 21.9938C42.1875 19.2938 40.2187 16.875 38.25 14.6813C42.4125 10.575 46.6312 7.76252 50.0625 7.76252C50.7937 7.76252 51.4687 7.93127 52.0312 8.26877ZM45.7313 41.625C44.7188 43.425 43.5375 45.225 42.3 47.025C40.2187 47.1938 38.1375 47.25 36 47.25C33.8062 47.25 31.725 47.1938 29.7 47.025C28.4625 45.225 27.3375 43.425 26.325 41.625C25.2562 39.7688 24.2437 37.8563 23.3437 36C24.2437 34.1438 25.2562 32.2313 26.325 30.375C27.3375 28.575 28.5187 26.775 29.7562 24.975C31.8375 24.8063 33.9187 24.75 36.0562 24.75C38.25 24.75 40.3312 24.8063 42.3563 24.975C43.5938 26.775 44.7188 28.575 45.7313 30.375C46.8 32.2313 47.8125 34.1438 48.7125 36C47.7562 37.8563 46.8 39.7125 45.7313 41.625ZM50.4 39.7688C51.2437 41.7375 51.9187 43.65 52.5375 45.5625C50.625 46.0125 48.6 46.35 46.4625 46.6313C47.1375 45.5625 47.8687 44.4375 48.4875 43.2563C49.1625 42.075 49.7812 40.8938 50.4 39.7688ZM36 55.0125C34.65 53.55 33.3562 51.975 32.1187 50.3438C33.4125 50.4 34.7062 50.4563 36 50.4563C37.2937 50.4563 38.5875 50.4 39.8812 50.3438C38.6437 51.975 37.35 53.55 36 55.0125ZM25.5375 46.575C23.4 46.2938 21.375 45.9563 19.4625 45.5063C20.0812 43.65 20.7562 41.6813 21.6 39.7125C22.2187 40.8375 22.8375 42.0188 23.5125 43.1438C24.1875 44.3813 24.8625 45.45 25.5375 46.575ZM21.6 32.2313C20.7562 30.2625 20.0812 28.35 19.4625 26.4375C21.375 25.9875 23.4 25.65 25.5375 25.3688C24.8625 26.4375 24.1312 27.5625 23.5125 28.7438C22.8375 29.925 22.2187 31.1063 21.6 32.2313ZM36 16.9875C37.35 18.45 38.6437 20.025 39.8812 21.6563C38.5875 21.6 37.2937 21.5438 36 21.5438C34.7062 21.5438 33.4125 21.6 32.1187 21.6563C33.3562 20.025 34.65 18.45 36 16.9875ZM48.4875 28.8L46.4625 25.425C48.6 25.7063 50.625 26.0438 52.5375 26.4938C51.9187 28.35 51.2437 30.3188 50.4 32.2875C49.7812 31.1063 49.1625 29.925 48.4875 28.8ZM17.8312 19.6875C16.875 13.7813 17.6625 9.61877 19.9687 8.26877C20.5312 7.93127 21.2062 7.76252 21.9375 7.76252C25.3125 7.76252 29.5312 10.5188 33.75 14.6813C31.7812 16.8188 29.8125 19.2938 27.9 21.9938C24.6375 22.275 21.5437 22.7813 18.6187 23.4C18.2812 22.1063 18.0562 20.8688 17.8312 19.6875ZM3.9375 36C3.9375 33.3563 7.14375 30.5438 12.7687 28.4625C13.8937 28.0125 15.1312 27.6188 16.3687 27.2813C17.2687 30.0938 18.3937 33.075 19.7437 36.0563C18.3937 39.0375 17.2125 41.9625 16.3687 44.775C8.60625 42.525 3.9375 39.15 3.9375 36ZM19.9687 63.7313C17.6625 62.3813 16.875 58.2188 17.8312 52.3125C18 51.1313 18.2812 49.8938 18.6187 48.6C21.5437 49.275 24.6375 49.725 27.9 50.0063C29.8125 52.7063 31.7812 55.125 33.75 57.3188C29.5875 61.425 25.3687 64.2375 21.9375 64.2375C21.2062 64.2375 20.5312 64.0688 19.9687 63.7313ZM54.1688 52.3125C55.125 58.2188 54.3375 62.3813 52.0312 63.7313C51.4687 64.0688 50.7937 64.2375 50.0625 64.2375C46.6875 64.2375 42.4687 61.4813 38.25 57.3188C40.2187 55.1813 42.1875 52.7063 44.1 50.0063C47.3625 49.725 50.4562 49.2188 53.3812 48.6C53.7188 49.8938 53.9437 51.1313 54.1688 52.3125ZM59.2313 43.5375C58.1063 43.9875 56.8687 44.3813 55.6312 44.7188C54.7312 41.9063 53.6062 38.925 52.2562 35.9438C53.6062 32.9625 54.7875 30.0375 55.6312 27.225C63.3937 29.475 68.0625 32.85 68.0625 36C68.0625 38.6438 64.8 41.4563 59.2313 43.5375Z" fill="#61DAFB"/>
</svg>
