<svg width="72" height="72" viewBox="0 0 72 72" fill="none" xmlns="http://www.w3.org/2000/svg">
<path d="M46.7437 45.2813C44.1 45.2251 41.7937 47.1938 41.5125 49.8376C41.5125 49.9501 41.5687 50.0063 41.6812 50.0063H51.8062C51.9187 50.0063 51.975 49.9501 51.975 49.8376C51.75 47.1376 49.4437 45.1126 46.7437 45.2813Z" fill="#CF0A2C"/>
<path d="M68.4562 11.1937L46.8562 35.3812C46.6312 35.6625 46.1812 35.6625 45.9 35.4375L45.8437 35.3812L34.9312 24.075C34.7062 23.85 34.7062 23.5125 34.875 23.2312L38.5312 18.5625C38.7562 18.2812 39.15 18.1687 39.4312 18.3937C39.4875 18.45 39.5437 18.45 39.5437 18.5062L45.7312 25.3125C45.9562 25.5937 46.4062 25.5937 46.6875 25.3687L46.7437 25.3125L64.0125 1.85623C64.1812 1.63123 64.125 1.34998 63.9 1.18123C63.8437 1.12498 63.7312 1.12498 63.6187 1.06873H3.20625C2.925 1.12498 2.7 1.34998 2.7 1.63123V70.3687C2.7 70.65 2.925 70.875 3.20625 70.875H68.7937C69.075 70.875 69.3 70.65 69.3 70.3687V11.5312C69.3 11.25 69.075 11.0812 68.85 11.0812C68.6812 11.025 68.5687 11.0812 68.4562 11.1937ZM21.3187 63.225C16.9875 63.3937 12.7687 61.9312 9.5625 59.0625C9.3375 58.8375 9.28125 58.5 9.50625 58.2187L12.0375 54.6187C12.2625 54.3375 12.6562 54.2812 12.9375 54.45L12.9937 54.5062C15.3562 56.7 18.3937 57.8812 21.6 57.8812C24.975 57.8812 26.6062 56.3062 26.6062 54.675C26.6062 49.5562 10.0125 53.1 10.0125 42.2437C10.0125 37.4625 14.175 33.4687 20.925 33.4687C24.8062 33.3562 28.6312 34.65 31.6687 37.125C31.8937 37.35 31.95 37.7437 31.725 37.9687L29.0812 41.4562C28.8562 41.7375 28.4625 41.7937 28.1812 41.5687C25.9312 39.7687 23.175 38.8125 20.3062 38.8687C17.6625 38.8687 16.2 40.05 16.2 41.7375C16.2 46.2937 32.7375 43.2562 32.7375 54C32.7937 59.2312 29.025 63.225 21.3187 63.225ZM57.4875 53.2125C57.4875 53.55 57.2062 53.775 56.925 53.775H41.7937C41.6812 53.775 41.625 53.8312 41.625 53.9437C42.1312 56.8687 44.775 58.8937 47.7562 58.725C49.6687 58.6687 51.4687 58.1062 52.9875 56.9812C53.2125 56.8125 53.6062 56.8125 53.775 57.0937L53.8312 57.15L55.6875 59.85C55.8562 60.075 55.8 60.4125 55.575 60.6375C53.1562 62.4375 50.175 63.3375 47.1937 63.225C40.6687 63.225 35.775 58.8375 35.775 51.975C35.6062 45.9562 40.3312 40.95 46.35 40.7812H46.8562C53.2125 40.7812 57.6 45.5625 57.6 52.5375L57.4875 53.2125Z" fill="#CF0A2C"/>
</svg>
