<svg width="72" height="72" viewBox="0 0 72 72" fill="none" xmlns="http://www.w3.org/2000/svg">
<g clip-path="url(#clip0_1205_9)">
<path d="M35.9724 0.000610352C16.1415 0.000610352 0.000564575 16.1415 0.000564575 35.9725C0.000564575 55.8034 16.1415 71.9444 35.9724 71.9444C55.8034 71.9444 71.9443 55.8034 71.9443 35.9725C71.9443 16.1415 55.8039 0.000610352 35.9724 0.000610352ZM35.9724 6.00755C52.5572 6.00755 65.9379 19.3877 65.9379 35.9725C65.9379 52.5578 52.5572 65.938 35.9724 65.938C19.3877 65.938 6.00694 52.5578 6.00694 35.9725C6.00694 19.3877 19.3877 6.00755 35.9724 6.00755Z" fill="#010101"/>
<path fill-rule="evenodd" clip-rule="evenodd" d="M27.2194 34.1528C35.0966 27.7178 42.8018 21.0589 50.8506 14.8118C46.629 21.2991 42.2871 27.7003 38.0655 34.1871C34.4447 34.204 30.8233 34.204 27.2194 34.1528ZM33.8783 37.7393C37.5165 37.7393 41.1373 37.7393 44.7581 37.791C36.8297 44.1923 29.1589 50.9023 21.0932 57.132C25.3148 50.6447 29.6567 44.2266 33.8783 37.7393Z" fill="#010101"/>
</g>
<defs>
<clipPath id="clip0_1205_9">
<rect width="72" height="72" fill="white"/>
</clipPath>
</defs>
</svg>
