<svg width="72" height="72" viewBox="0 0 72 72" fill="none" xmlns="http://www.w3.org/2000/svg">
<path d="M64.548 4.5H7.452C5.82166 4.5 4.5 5.82166 4.5 7.452V64.548C4.5 66.1783 5.82166 67.5 7.452 67.5H64.548C66.1783 67.5 67.5 66.1783 67.5 64.548V7.452C67.5 5.82166 66.1783 4.5 64.548 4.5Z" fill="#3178C6"/>
<path fill-rule="evenodd" clip-rule="evenodd" d="M41.0513 53.4577V60.3607C42.3055 60.9798 43.6421 61.4155 45.0203 61.6545C46.6128 61.9485 48.2293 62.0931 49.8488 62.0865C51.4271 62.094 53.0018 61.9348 54.5468 61.6117C55.9338 61.3314 57.2573 60.7975 58.4505 60.0367C59.5583 59.3217 60.4713 58.3429 61.1078 57.1882C62.2476 54.7972 62.398 52.053 61.5263 49.5517C61.1584 48.6164 60.6102 47.7624 59.913 47.0385C59.1646 46.2687 58.3145 45.6048 57.3863 45.0652C56.3176 44.4393 55.2072 43.8875 54.063 43.4137C53.163 43.0402 52.353 42.6772 51.633 42.3247C50.9935 42.0185 50.3815 41.658 49.8038 41.247C49.3512 40.9298 48.9582 40.5352 48.6428 40.0815C48.3702 39.6695 48.2283 39.1849 48.2355 38.691C48.2295 38.2364 48.3562 37.7899 48.6 37.4062C48.8648 37.0047 49.2181 36.6691 49.6328 36.4252C50.1396 36.1268 50.6912 35.9118 51.2663 35.7885C51.9723 35.6316 52.694 35.5561 53.4173 35.5635C54.0255 35.5656 54.6329 35.6092 55.2353 35.694C55.8857 35.7819 56.5293 35.915 57.1613 36.0922C57.8041 36.2704 58.4328 36.496 59.0423 36.7672C59.6336 37.0308 60.1993 37.3487 60.732 37.7167V31.275C59.623 30.8554 58.4729 30.5537 57.3008 30.375C55.8853 30.169 54.4561 30.072 53.0258 30.0847C51.4623 30.0763 49.9033 30.2538 48.3818 30.6135C47.0064 30.9278 45.6987 31.4864 44.5208 32.2627C43.4265 32.9917 42.523 33.9723 41.886 35.1225C41.2109 36.3997 40.8769 37.8296 40.9163 39.2737C40.8664 41.1835 41.4954 43.0491 42.6915 44.5387C44.1589 46.1904 46.0093 47.4567 48.0803 48.2265C49.0253 48.6165 49.9065 48.9982 50.724 49.3717C51.4616 49.6999 52.1705 50.089 52.8435 50.535C53.3863 50.8881 53.863 51.3336 54.252 51.8512C54.594 52.3208 54.7755 52.8881 54.7695 53.469C54.7726 53.9043 54.6608 54.3327 54.4455 54.711C54.2062 55.1175 53.87 55.4584 53.4668 55.7032C52.9622 56.0108 52.4103 56.2328 51.8333 56.3602C51.0816 56.5283 50.3129 56.6076 49.5428 56.5965C48.0314 56.5937 46.5322 56.3272 45.1125 55.809C43.6293 55.2738 42.2539 54.4775 41.0513 53.4577ZM29.4548 36.2722H38.4548V30.5865H13.3605V36.2722H22.32V61.5937H29.4548V36.2722Z" fill="white"/>
</svg>
